<svg width="1280" height="664" viewBox="0 0 1280 664" fill="none" xmlns="http://www.w3.org/2000/svg">
<g clip-path="url(#clip0_1194_118)">
<rect width="1280" height="664" fill="#E9E6D5"/>
<path d="M68 252.145C164.857 250.449 360.233 309.446 366.886 559.001" stroke="url(#paint0_linear_1194_118)" stroke-width="3"/>
<path d="M675.055 252.036C578.809 250.339 378.055 311.5 378.055 559.001" stroke="url(#paint1_linear_1194_118)" stroke-width="4"/>
<path d="M675.109 410.856C578.685 412.552 377.558 349 377.558 104" stroke="url(#paint2_linear_1194_118)" stroke-width="6"/>
<path d="M675.109 397.516C583.441 399.138 392.235 342 392.235 104.001" stroke="url(#paint3_linear_1194_118)" stroke-width="4.5"/>
<path d="M675.109 381.506C587.765 383.04 405.579 331.002 405.579 104.002" stroke="url(#paint4_linear_1194_118)" stroke-width="3"/>
<path d="M68 265.485C160.1 263.863 345.882 320.295 352.208 559" stroke="url(#paint5_linear_1194_118)" stroke-width="4.5"/>
<path d="M68 281.495C155.344 279.961 331.532 333.315 337.531 559" stroke="url(#paint6_linear_1194_118)" stroke-width="6"/>
<path d="M364 101C364 202 310.5 412 64 412" stroke="#495F2B" stroke-width="4"/>
<path d="M675 865.964C578.754 867.661 378 780 378 558.999" stroke="url(#paint7_linear_1194_118)" stroke-width="4"/>
<path d="M69.1094 252.145C-27.7473 250.449 -223.124 309.446 -229.776 559.001" stroke="url(#paint8_linear_1194_118)" stroke-width="3"/>
<path d="M69.1094 265.485C-22.9909 263.863 -208.773 320.295 -215.099 559" stroke="url(#paint9_linear_1194_118)" stroke-width="4.5"/>
<path d="M69.1094 281.495C-18.2346 279.961 -194.422 333.315 -200.421 559" stroke="url(#paint10_linear_1194_118)" stroke-width="6"/>
<path d="M-226.891 101C-226.891 202 -173.391 412 73.1094 412" stroke="#495F2B" stroke-width="4"/>
<path d="M364 107C364 11 310.5 -204 64 -204" stroke="#495F2B" stroke-width="4"/>
</g>
<defs>
<linearGradient id="paint0_linear_1194_118" x1="217.443" y1="252.109" x2="217.443" y2="559.001" gradientUnits="userSpaceOnUse">
<stop stop-color="#495F2B"/>
<stop offset="1" stop-color="#495F2B" stop-opacity="0"/>
</linearGradient>
<linearGradient id="paint1_linear_1194_118" x1="526.555" y1="252" x2="526.555" y2="559" gradientUnits="userSpaceOnUse">
<stop stop-color="#495F2B" stop-opacity="0"/>
<stop offset="1" stop-color="#495F2B"/>
</linearGradient>
<linearGradient id="paint2_linear_1194_118" x1="526.334" y1="410.893" x2="526.334" y2="104" gradientUnits="userSpaceOnUse">
<stop stop-color="#495F2B" stop-opacity="0"/>
<stop offset="0.179" stop-color="#495F2B"/>
<stop offset="1" stop-color="#495F2B" stop-opacity="0"/>
</linearGradient>
<linearGradient id="paint3_linear_1194_118" x1="533.672" y1="397.549" x2="533.672" y2="128.5" gradientUnits="userSpaceOnUse">
<stop stop-color="#495F2B" stop-opacity="0"/>
<stop offset="0.179" stop-color="#495F2B"/>
<stop offset="1" stop-color="#495F2B" stop-opacity="0"/>
</linearGradient>
<linearGradient id="paint4_linear_1194_118" x1="540.344" y1="381.537" x2="540.344" y2="156.5" gradientUnits="userSpaceOnUse">
<stop stop-color="#495F2B" stop-opacity="0"/>
<stop offset="0.179" stop-color="#495F2B"/>
<stop offset="1" stop-color="#495F2B" stop-opacity="0"/>
</linearGradient>
<linearGradient id="paint5_linear_1194_118" x1="210.104" y1="265.451" x2="210.104" y2="559" gradientUnits="userSpaceOnUse">
<stop stop-color="#495F2B"/>
<stop offset="0.95" stop-color="#495F2B" stop-opacity="0"/>
</linearGradient>
<linearGradient id="paint6_linear_1194_118" x1="202.765" y1="281.463" x2="202.765" y2="525" gradientUnits="userSpaceOnUse">
<stop stop-color="#495F2B"/>
<stop offset="1" stop-color="#495F2B" stop-opacity="0"/>
</linearGradient>
<linearGradient id="paint7_linear_1194_118" x1="526.5" y1="866" x2="526.5" y2="559" gradientUnits="userSpaceOnUse">
<stop stop-color="#495F2B" stop-opacity="0"/>
<stop offset="1" stop-color="#495F2B"/>
</linearGradient>
<linearGradient id="paint8_linear_1194_118" x1="-80.3334" y1="252.109" x2="-80.3334" y2="559.001" gradientUnits="userSpaceOnUse">
<stop stop-color="#495F2B"/>
<stop offset="1" stop-color="#495F2B" stop-opacity="0"/>
</linearGradient>
<linearGradient id="paint9_linear_1194_118" x1="-72.9947" y1="265.451" x2="-72.9947" y2="559" gradientUnits="userSpaceOnUse">
<stop stop-color="#495F2B"/>
<stop offset="1" stop-color="#495F2B" stop-opacity="0"/>
</linearGradient>
<linearGradient id="paint10_linear_1194_118" x1="-65.656" y1="281.463" x2="-65.656" y2="559" gradientUnits="userSpaceOnUse">
<stop stop-color="#495F2B"/>
<stop offset="1" stop-color="#495F2B" stop-opacity="0"/>
</linearGradient>
<clipPath id="clip0_1194_118">
<rect width="1280" height="664" fill="white"/>
</clipPath>
</defs>
</svg>
