<svg xmlns="http://www.w3.org/2000/svg" width="1280" height="772" viewBox="0 0 1280 772" fill="none"><g clip-path="url(#clip0_1357_50)"><rect width="1280" height="772" fill="#F9F8F3"></rect><path d="M1078 854.655V849.957C1078 683.032 1213.32 547.712 1380.25 547.712" stroke="url(#paint0_linear_1357_50)" stroke-opacity="0.2"></path><path d="M1078 854.655V849.957C1078 683.032 942.68 547.712 775.755 547.712" stroke="url(#paint1_linear_1357_50)" stroke-opacity="0.2"></path><path d="M1191.94 661.783C1132.16 721.644 1065.24 762.958 1005.44 781.407C945.562 799.878 893.233 795.332 862.062 764.201C830.892 733.071 826.28 680.748 844.674 620.849C863.046 561.023 904.274 494.053 964.058 434.192C1023.84 374.331 1090.76 333.017 1150.56 314.568C1210.44 296.097 1262.77 300.643 1293.94 331.773C1325.11 362.903 1329.72 415.226 1311.33 475.126C1292.95 534.952 1251.73 601.922 1191.94 661.783Z" stroke="url(#paint2_linear_1357_50)" stroke-opacity="0.2" stroke-width="3"></path><path d="M1081.13 240.769C1081.13 409.424 944.41 547.712 775.755 547.712" stroke="url(#paint3_linear_1357_50)" stroke-opacity="0.2"></path><path d="M1081.13 240.769V243.901C1081.13 411.691 1217.15 547.712 1384.94 547.712" stroke="url(#paint4_linear_1357_50)" stroke-opacity="0.2"></path><path d="M1191.94 434.194C1132.16 374.333 1065.24 333.02 1005.44 314.571C945.562 296.1 893.233 300.646 862.062 331.776C830.892 362.906 826.28 415.229 844.674 475.128C863.046 534.955 904.274 601.924 964.058 661.786C1023.84 721.647 1090.76 762.96 1150.56 781.409C1210.44 799.88 1262.77 795.334 1293.94 764.204C1325.11 733.074 1329.72 680.751 1311.33 620.852C1292.95 561.025 1251.73 494.055 1191.94 434.194Z" stroke="url(#paint5_linear_1357_50)" stroke-opacity="0.2" stroke-width="3"></path><path d="M862.872 762.997C981.222 644.647 1174.05 643.703 1292.4 762.054" stroke="url(#paint6_linear_1357_50)" stroke-opacity="0.2"></path><path d="M862.872 762.997C981.222 644.647 1174.05 643.703 1292.4 762.054" stroke="url(#paint7_linear_1357_50)" stroke-opacity="0.2"></path><path d="M1078.1 709.023C993.501 709.077 916.971 690.972 861.638 661.731C806.239 632.453 772.451 592.236 772.423 548.183C772.395 504.13 806.131 463.871 861.493 434.523C916.787 405.21 993.294 387.008 1077.9 386.953C1162.5 386.899 1239.03 405.003 1294.36 434.245C1349.76 463.522 1383.55 503.739 1383.58 547.792C1383.61 591.845 1349.87 632.105 1294.51 661.453C1239.21 690.766 1162.71 708.968 1078.1 709.023Z" stroke="url(#paint8_linear_1357_50)" stroke-opacity="0.2" stroke-width="3"></path><path d="M1239.03 548.091C1239.09 463.489 1220.98 386.958 1191.74 331.626C1162.46 276.226 1122.25 242.439 1078.19 242.411C1034.14 242.383 993.883 276.119 964.534 331.48C935.222 386.775 917.019 463.282 916.965 547.884C916.911 632.487 935.015 709.017 964.257 764.349C993.534 819.749 1033.75 853.536 1077.8 853.565C1121.86 853.593 1162.12 819.857 1191.46 764.495C1220.78 709.2 1238.98 632.693 1239.03 548.091Z" stroke="url(#paint9_linear_1357_50)" stroke-opacity="0.2" stroke-width="3"></path><path d="M1078.1 709.023C993.501 709.077 916.971 690.972 861.638 661.731C806.239 632.453 772.451 592.236 772.423 548.183C772.395 504.13 806.131 463.871 861.493 434.523C916.787 405.21 993.294 387.008 1077.9 386.953C1162.5 386.899 1239.03 405.003 1294.36 434.245C1349.76 463.522 1383.55 503.739 1383.58 547.792C1383.61 591.845 1349.87 632.105 1294.51 661.453C1239.21 690.766 1162.71 708.968 1078.1 709.023Z" stroke="url(#paint10_linear_1357_50)" stroke-opacity="0.2" stroke-width="3"></path><path d="M1291.58 334.292C1173.5 452.373 981.562 451.885 863.481 333.804" stroke="url(#paint11_linear_1357_50)" stroke-opacity="0.2"></path><path d="M1239.03 548.091C1239.09 463.489 1220.98 386.958 1191.74 331.626C1162.46 276.226 1122.25 242.439 1078.19 242.411C1034.14 242.383 993.883 276.119 964.534 331.48C935.222 386.775 917.019 463.282 916.965 547.884C916.911 632.487 935.015 709.017 964.257 764.349C993.534 819.749 1033.75 853.536 1077.8 853.565C1121.86 853.593 1162.12 819.857 1191.46 764.495C1220.78 709.2 1238.98 632.693 1239.03 548.091Z" stroke="url(#paint12_linear_1357_50)" stroke-opacity="0.2" stroke-width="3"></path></g><defs><linearGradient id="paint0_linear_1357_50" x1="1229.12" y1="854.655" x2="1229.12" y2="547.712" gradientUnits="userSpaceOnUse"><stop stop-color="#495F2B"></stop><stop offset="1" stop-color="#495F2B" stop-opacity="0"></stop></linearGradient><linearGradient id="paint1_linear_1357_50" x1="926.877" y1="854.655" x2="926.877" y2="547.712" gradientUnits="userSpaceOnUse"><stop stop-color="#495F2B"></stop><stop offset="1" stop-color="#495F2B" stop-opacity="0"></stop></linearGradient><linearGradient id="paint2_linear_1357_50" x1="1193" y1="662.843" x2="962.997" y2="433.132" gradientUnits="userSpaceOnUse"><stop stop-color="#495F2B"></stop><stop offset="1" stop-color="#495F2B" stop-opacity="0"></stop></linearGradient><linearGradient id="paint3_linear_1357_50" x1="928.443" y1="240.769" x2="928.443" y2="547.712" gradientUnits="userSpaceOnUse"><stop stop-color="#495F2B"></stop><stop offset="1" stop-color="#495F2B" stop-opacity="0"></stop></linearGradient><linearGradient id="paint4_linear_1357_50" x1="1233.04" y1="240.769" x2="1233.04" y2="547.712" gradientUnits="userSpaceOnUse"><stop stop-color="#495F2B"></stop><stop offset="1" stop-color="#495F2B" stop-opacity="0"></stop></linearGradient><linearGradient id="paint5_linear_1357_50" x1="1193" y1="433.134" x2="962.997" y2="662.846" gradientUnits="userSpaceOnUse"><stop stop-color="#495F2B"></stop><stop offset="1" stop-color="#495F2B" stop-opacity="0"></stop></linearGradient><linearGradient id="paint6_linear_1357_50" x1="970.018" y1="870.143" x2="1185.25" y2="654.908" gradientUnits="userSpaceOnUse"><stop stop-color="#495F2B"></stop><stop offset="1" stop-color="#495F2B" stop-opacity="0"></stop></linearGradient><linearGradient id="paint7_linear_1357_50" x1="970.018" y1="870.143" x2="1185.25" y2="654.908" gradientUnits="userSpaceOnUse"><stop stop-color="#495F2B"></stop><stop offset="1" stop-color="#495F2B" stop-opacity="0"></stop></linearGradient><linearGradient id="paint8_linear_1357_50" x1="1078.1" y1="710.523" x2="1077.9" y2="385.453" gradientUnits="userSpaceOnUse"><stop stop-color="#495F2B"></stop><stop offset="1" stop-color="#495F2B" stop-opacity="0"></stop></linearGradient><linearGradient id="paint9_linear_1357_50" x1="1240.53" y1="548.092" x2="915.465" y2="547.884" gradientUnits="userSpaceOnUse"><stop stop-color="#495F2B"></stop><stop offset="1" stop-color="#495F2B" stop-opacity="0"></stop></linearGradient><linearGradient id="paint10_linear_1357_50" x1="1078.1" y1="710.523" x2="1077.9" y2="385.453" gradientUnits="userSpaceOnUse"><stop stop-color="#495F2B"></stop><stop offset="1" stop-color="#495F2B" stop-opacity="0"></stop></linearGradient><linearGradient id="paint11_linear_1357_50" x1="1184.43" y1="227.146" x2="970.627" y2="440.95" gradientUnits="userSpaceOnUse"><stop stop-color="#495F2B"></stop><stop offset="1" stop-color="#495F2B" stop-opacity="0"></stop></linearGradient><linearGradient id="paint12_linear_1357_50" x1="1240.53" y1="548.092" x2="915.465" y2="547.884" gradientUnits="userSpaceOnUse"><stop stop-color="#495F2B"></stop><stop offset="1" stop-color="#495F2B" stop-opacity="0"></stop></linearGradient><clipPath id="clip0_1357_50"><rect width="1280" height="772" fill="white"></rect></clipPath></defs></svg>