<svg width="80" height="81" viewBox="0 0 80 81" fill="none" xmlns="http://www.w3.org/2000/svg">
<path d="M68.7539 49.877C71.6642 52.8464 73.3333 56.3065 73.3333 60.0004C73.3333 71.0461 58.4094 80.0004 40 80.0004C21.5905 80.0004 6.66663 71.0461 6.66663 60.0004C6.66663 56.3065 8.3357 52.8464 11.246 49.877" stroke="#878C88"/>
<path d="M67.4074 29.2207C71.1437 32.4522 73.3333 36.3763 73.3333 40.6072C73.3333 51.6529 58.4094 60.6072 40 60.6072C21.5905 60.6072 6.66663 51.6529 6.66663 40.6072C6.66663 36.3763 8.8562 32.4522 12.5926 29.2207" stroke="#878C88"/>
<path d="M39.9996 1.5C48.9793 1.5 57.0365 3.68736 62.7985 7.14453C68.5902 10.6196 71.8336 15.2111 71.8336 20C71.8336 24.7889 68.5902 29.3804 62.7985 32.8555C57.0365 36.3126 48.9793 38.5 39.9996 38.5C31.0202 38.4999 22.9637 36.3126 17.2018 32.8555C11.41 29.3804 8.16663 24.789 8.16663 20C8.16663 15.211 11.41 10.6196 17.2018 7.14453C22.9637 3.68741 31.0202 1.50005 39.9996 1.5Z" stroke="#436A1F" stroke-width="3"/>
</svg>
