<svg width="81" height="80" viewBox="0 0 81 80" fill="none" xmlns="http://www.w3.org/2000/svg">
<g opacity="0.5">
<path d="M27.9482 50.3006C19.0689 46.2154 12.9043 37.2404 12.9043 26.8257C12.9043 12.562 24.4673 0.999023 38.731 0.999023C52.9947 0.999023 64.5576 12.562 64.5576 26.8257C64.5576 28.5232 64.3939 30.1824 64.0813 31.7885" stroke="#111B12" stroke-width="1.5"/>
<path d="M40.7763 73.7223C36.7021 76.409 31.822 77.9727 26.5767 77.9727C12.313 77.9727 0.75 66.4097 0.75 52.146C0.75 37.8823 12.313 26.3193 26.5767 26.3193C31.822 26.3193 36.7021 27.883 40.7763 30.5697" stroke="#111B12" stroke-width="1.5"/>
</g>
<path d="M52.0664 27.6318C66.3376 27.632 77.7764 38.7543 77.7764 52.3164C77.7762 65.8784 66.3374 76.9998 52.0664 77C37.7952 77 26.3557 65.8785 26.3555 52.3164C26.3555 38.7542 37.7951 27.6318 52.0664 27.6318Z" stroke="#436A1F" stroke-width="4"/>
</svg>
