<svg width="80" height="80" viewBox="0 0 80 80" fill="none" xmlns="http://www.w3.org/2000/svg">
<path d="M39.9999 0.501953C61.8146 0.501953 79.4987 18.1858 79.4989 40C79.4989 61.8143 61.8147 79.499 39.9999 79.499C18.1851 79.4989 0.500854 61.8143 0.500854 40C0.501007 18.1859 18.1852 0.502044 39.9999 0.501953Z" stroke="#878C88"/>
<path d="M39.8604 23.917C55.1313 23.9172 67.5107 36.2967 67.5107 51.5674C67.5107 66.838 55.1313 79.2175 39.8604 79.2178C24.5892 79.2178 12.209 66.8382 12.209 51.5674C12.209 36.2966 24.5892 23.917 39.8604 23.917Z" stroke="#878C88"/>
<path d="M39.5121 45.4023C48.6513 45.4026 56.0598 52.8112 56.0599 61.9502C56.0599 71.0892 48.6514 78.4978 39.5121 78.498C30.3726 78.498 22.9633 71.0894 22.9633 61.9502C22.9634 52.8111 30.3727 45.4023 39.5121 45.4023Z" stroke="#436A1F" stroke-width="3"/>
</svg>
