<svg width="80" height="80" viewBox="0 0 80 80" fill="none" xmlns="http://www.w3.org/2000/svg">
<path d="M48.2009 50.0547C61.0281 51.7887 70.4385 57.4904 70.4385 64.2568C70.4385 72.3993 56.811 79.0001 40.0007 79.0001C23.1903 79.0001 9.56287 72.3993 9.56287 64.2568C9.56287 60.8767 11.9112 57.7622 15.8607 55.2754" stroke="#878C88"/>
<path d="M30.604 29.7707C18.3923 27.8527 9.56287 22.2975 9.56287 15.7433C9.56287 7.6008 23.1903 1 40.0007 1C56.811 1 70.4385 7.6008 70.4385 15.7433C70.4385 18.9354 68.3441 21.8905 64.7847 24.3039" stroke="#878C88"/>
<path d="M33.0647 28.2416C40.0754 23.9324 47.2075 21.4485 53.0264 20.8643C58.96 20.2686 62.9921 21.6681 64.6531 24.3703C66.3141 27.0725 65.7419 31.302 62.5308 36.3272C59.3819 41.2552 53.9451 46.4969 46.9343 50.8062C39.9237 55.1153 32.7922 57.5988 26.9734 58.183C21.0398 58.7787 17.0076 57.3793 15.3467 54.6771C13.6858 51.9748 14.258 47.7452 17.469 42.7201C20.6179 37.7923 26.0542 32.5507 33.0647 28.2416Z" stroke="#436A1F" stroke-width="3"/>
</svg>
