<svg xmlns="http://www.w3.org/2000/svg" width="1376" height="600" viewBox="0 0 1376 600" fill="none"><g clip-path="url(#clip0_180_2)"><rect width="1376" height="600" fill="#627F38"></rect><g opacity="0.3"><path d="M-136.972 200.4C16.6319 198.059 326.478 279.501 337.028 624" stroke="url(#paint0_linear_180_2)" stroke-width="8"></path><path d="M826.028 200.4C673.072 198.059 364.534 279.501 354.028 624" stroke="url(#paint1_linear_180_2)" stroke-width="5"></path><path d="M826.028 420.6C673.072 422.941 364.534 341.499 354.028 -2.99946" stroke="url(#paint2_linear_180_2)" stroke-width="8"></path><path d="M826.028 400.666C680.525 402.897 387.022 325.287 377.028 -3.00006" stroke="url(#paint3_linear_180_2)" stroke-width="6"></path><path d="M826.028 379.735C687.33 381.85 407.554 308.265 398.028 -2.99996" stroke="url(#paint4_linear_180_2)" stroke-width="4"></path><path d="M-136.972 220.334C8.85448 218.103 303.012 295.713 313.028 624" stroke="url(#paint5_linear_180_2)" stroke-width="6"></path><path d="M-136.972 241.265C1.72518 239.15 281.501 312.735 291.028 624" stroke="url(#paint6_linear_180_2)" stroke-width="4"></path><path d="M-136.972 420.6C15.3357 422.941 322.567 341.499 333.028 -2.99946" stroke="url(#paint7_linear_180_2)" stroke-width="5"></path></g></g><defs><linearGradient id="paint0_linear_180_2" x1="100.028" y1="200.352" x2="100.028" y2="624" gradientUnits="userSpaceOnUse"><stop stop-color="white"></stop><stop offset="1" stop-color="white" stop-opacity="0"></stop></linearGradient><linearGradient id="paint1_linear_180_2" x1="590.028" y1="200.352" x2="590.028" y2="624" gradientUnits="userSpaceOnUse"><stop stop-color="white" stop-opacity="0"></stop><stop offset="1" stop-color="white"></stop></linearGradient><linearGradient id="paint2_linear_180_2" x1="590.028" y1="420.649" x2="590.028" y2="-2.99945" gradientUnits="userSpaceOnUse"><stop stop-color="white" stop-opacity="0"></stop><stop offset="0.179" stop-color="white"></stop><stop offset="1" stop-color="white" stop-opacity="0"></stop></linearGradient><linearGradient id="paint3_linear_180_2" x1="601.528" y1="400.712" x2="601.528" y2="-3.00006" gradientUnits="userSpaceOnUse"><stop stop-color="white" stop-opacity="0"></stop><stop offset="0.179" stop-color="white"></stop><stop offset="1" stop-color="white" stop-opacity="0"></stop></linearGradient><linearGradient id="paint4_linear_180_2" x1="612.028" y1="379.779" x2="612.028" y2="-2.99997" gradientUnits="userSpaceOnUse"><stop stop-color="white" stop-opacity="0"></stop><stop offset="0.179" stop-color="white"></stop><stop offset="1" stop-color="white" stop-opacity="0"></stop></linearGradient><linearGradient id="paint5_linear_180_2" x1="88.0278" y1="220.288" x2="88.0278" y2="624" gradientUnits="userSpaceOnUse"><stop stop-color="white"></stop><stop offset="1" stop-color="white" stop-opacity="0"></stop></linearGradient><linearGradient id="paint6_linear_180_2" x1="77.0278" y1="241.221" x2="77.0278" y2="624" gradientUnits="userSpaceOnUse"><stop stop-color="white"></stop><stop offset="1" stop-color="white" stop-opacity="0"></stop></linearGradient><linearGradient id="paint7_linear_180_2" x1="98.0278" y1="420.649" x2="98.0278" y2="-2.99945" gradientUnits="userSpaceOnUse"><stop stop-color="white" stop-opacity="0"></stop><stop offset="0.0001" stop-color="white"></stop></linearGradient><clipPath id="clip0_180_2"><rect width="1376" height="600" fill="white"></rect></clipPath></defs></svg>