<svg xmlns="http://www.w3.org/2000/svg" width="47" height="37" viewBox="0 0 47 37" fill="none"><mask id="path-1-inside-1_874_1037" fill="white"><path d="M35.456 36.2235C32.8107 36.2235 30.5067 35.2849 28.544 33.4075C26.5814 31.4449 25.6 28.6715 25.6 25.0875C25.6 19.6262 27.1787 14.6342 30.336 10.1115C33.5787 5.58886 38.9974 2.2182 46.592 -0.000473022V5.37553C43.8614 6.22886 41.5574 7.25286 39.68 8.44753C37.888 9.55686 36.5654 10.8369 35.712 12.2875C34.8587 13.6529 34.432 15.1889 34.432 16.8955C34.432 17.9195 34.7307 18.7729 35.328 19.4555C36.0107 20.0529 36.8214 20.6075 37.76 21.1195C38.6987 21.5462 39.5947 22.0582 40.448 22.6555C41.3867 23.2529 42.1547 24.0209 42.752 24.9595C43.4347 25.8982 43.776 27.1355 43.776 28.6715C43.776 31.0609 42.9654 32.9382 41.344 34.3035C39.808 35.5835 37.8454 36.2235 35.456 36.2235ZM9.85603 36.2235C7.2107 36.2235 4.9067 35.2849 2.94403 33.4075C0.981365 31.4449 3.14713e-05 28.6715 3.14713e-05 25.0875C3.14713e-05 19.6262 1.5787 14.6342 4.73603 10.1115C7.9787 5.58886 13.3974 2.2182 20.992 -0.000473022V5.37553C18.2614 6.22886 15.9574 7.25286 14.08 8.44753C12.288 9.55686 10.9654 10.8369 10.112 12.2875C9.2587 13.6529 8.83203 15.1889 8.83203 16.8955C8.83203 17.9195 9.1307 18.7729 9.72803 19.4555C10.4107 20.0529 11.1787 20.6075 12.032 21.1195C12.9707 21.5462 13.9094 22.0582 14.848 22.6555C15.7867 23.2529 16.5547 24.0209 17.152 24.9595C17.8347 25.8982 18.176 27.1355 18.176 28.6715C18.176 31.0609 17.3654 32.9382 15.744 34.3035C14.208 35.5835 12.2454 36.2235 9.85603 36.2235Z"></path></mask><path d="M28.544 33.4075L25.7156 36.236L25.747 36.2674L25.7791 36.2981L28.544 33.4075ZM30.336 10.1115L27.0853 7.78077L27.0706 7.80121L27.0562 7.82183L30.336 10.1115ZM46.592 -0.000473022H50.592V-5.3362L45.4704 -3.83999L46.592 -0.000473022ZM46.592 5.37553L47.7851 9.19345L50.592 8.31629V5.37553H46.592ZM39.68 8.44753L41.7855 11.8486L41.8066 11.8355L41.8275 11.8222L39.68 8.44753ZM35.712 12.2875L39.104 14.4075L39.1325 14.3619L39.1598 14.3156L35.712 12.2875ZM35.328 19.4555L32.3177 22.0895L32.4933 22.2902L32.694 22.4658L35.328 19.4555ZM37.76 21.1195L35.8446 24.6311L35.9724 24.7008L36.1048 24.761L37.76 21.1195ZM40.448 22.6555L38.1542 25.9325L38.2263 25.9829L38.3005 26.0302L40.448 22.6555ZM42.752 24.9595L39.3774 27.107L39.4441 27.2118L39.5171 27.3122L42.752 24.9595ZM41.344 34.3035L43.9048 37.3764L43.9127 37.3698L43.9206 37.3632L41.344 34.3035ZM2.94403 33.4075L0.115604 36.236L0.147027 36.2674L0.17914 36.2981L2.94403 33.4075ZM4.73603 10.1115L1.48525 7.78077L1.47059 7.80121L1.4562 7.82183L4.73603 10.1115ZM20.992 -0.000473022H24.992V-5.3362L19.8704 -3.83999L20.992 -0.000473022ZM20.992 5.37553L22.1851 9.19345L24.992 8.31629V5.37553H20.992ZM14.08 8.44753L16.1855 11.8486L16.2066 11.8355L16.2275 11.8222L14.08 8.44753ZM10.112 12.2875L13.504 14.4075L13.5325 14.3619L13.5598 14.3156L10.112 12.2875ZM9.72803 19.4555L6.71772 22.0895L6.89333 22.2902L7.09402 22.4658L9.72803 19.4555ZM12.032 21.1195L9.97404 24.5495L10.1694 24.6667L10.3768 24.761L12.032 21.1195ZM14.848 22.6555L16.9955 19.2809L16.9955 19.2809L14.848 22.6555ZM17.152 24.9595L13.7774 27.107L13.8441 27.2118L13.9171 27.3122L17.152 24.9595ZM15.744 34.3035L18.3048 37.3764L18.3127 37.3698L18.3206 37.3632L15.744 34.3035ZM35.456 36.2235V32.2235C33.871 32.2235 32.5493 31.7034 31.3089 30.517L28.544 33.4075L25.7791 36.2981C28.4641 38.8663 31.7504 40.2235 35.456 40.2235V36.2235ZM28.544 33.4075L31.3725 30.5791C30.3609 29.5676 29.6 27.9335 29.6 25.0875H25.6H21.6C21.6 29.4096 22.8018 33.3222 25.7156 36.236L28.544 33.4075ZM25.6 25.0875H29.6C29.6 20.4538 30.9223 16.2595 33.6159 12.4012L30.336 10.1115L27.0562 7.82183C23.4351 13.0089 21.6 18.7985 21.6 25.0875H25.6ZM30.336 10.1115L33.5868 12.4423C36.1283 8.89752 40.6243 5.9101 47.7137 3.83904L46.592 -0.000473022L45.4704 -3.83999C37.3704 -1.47371 31.0291 2.2802 27.0853 7.78077L30.336 10.1115ZM46.592 -0.000473022H42.592V5.37553H46.592H50.592V-0.000473022H46.592ZM46.592 5.37553L45.3989 1.55761C42.4225 2.48775 39.7777 3.64417 37.5325 5.07288L39.68 8.44753L41.8275 11.8222C43.3371 10.8615 45.3003 9.96997 47.7851 9.19345L46.592 5.37553ZM39.68 8.44753L37.5746 5.04647C35.3669 6.41316 33.5197 8.12519 32.2643 10.2594L35.712 12.2875L39.1598 14.3156C39.611 13.5485 40.4092 12.7006 41.7855 11.8486L39.68 8.44753ZM35.712 12.2875L32.32 10.1675C31.0452 12.2073 30.432 14.4862 30.432 16.8955H34.432H38.432C38.432 15.8915 38.6722 15.0984 39.104 14.4075L35.712 12.2875ZM34.432 16.8955H30.432C30.432 18.755 30.9996 20.5832 32.3177 22.0895L35.328 19.4555L38.3383 16.8215C38.3532 16.8385 38.3723 16.8638 38.3911 16.896C38.41 16.9283 38.4232 16.9585 38.4315 16.9821C38.4491 17.0324 38.432 17.0165 38.432 16.8955H34.432ZM35.328 19.4555L32.694 22.4658C33.6321 23.2867 34.6931 24.003 35.8446 24.6311L37.76 21.1195L39.6754 17.608C38.9496 17.212 38.3893 16.819 37.962 16.4452L35.328 19.4555ZM37.76 21.1195L36.1048 24.761C36.8176 25.085 37.5 25.4745 38.1542 25.9325L40.448 22.6555L42.7419 19.3786C41.6894 18.6418 40.5798 18.0074 39.4152 17.4781L37.76 21.1195ZM40.448 22.6555L38.3005 26.0302C38.7453 26.3132 39.0944 26.6623 39.3774 27.107L42.752 24.9595L46.1267 22.812C45.215 21.3794 44.0281 20.1925 42.5955 19.2809L40.448 22.6555ZM42.752 24.9595L39.5171 27.3122C39.5638 27.3764 39.776 27.7097 39.776 28.6715H43.776H47.776C47.776 26.5614 47.3056 24.42 45.987 22.6068L42.752 24.9595ZM43.776 28.6715H39.776C39.776 30.0495 39.3649 30.7408 38.7675 31.2439L41.344 34.3035L43.9206 37.3632C46.5658 35.1356 47.776 32.0723 47.776 28.6715H43.776ZM41.344 34.3035L38.7833 31.2306C38.1 31.8 37.1001 32.2235 35.456 32.2235V36.2235V40.2235C38.5907 40.2235 41.516 39.367 43.9048 37.3764L41.344 34.3035ZM9.85603 36.2235V32.2235C8.27098 32.2235 6.94929 31.7034 5.70892 30.517L2.94403 33.4075L0.17914 36.2981C2.86411 38.8663 6.15042 40.2235 9.85603 40.2235V36.2235ZM2.94403 33.4075L5.77246 30.5791C4.76093 29.5676 4.00003 27.9335 4.00003 25.0875H3.14713e-05H-3.99997C-3.99997 29.4096 -2.7982 33.3222 0.115604 36.236L2.94403 33.4075ZM3.14713e-05 25.0875H4.00003C4.00003 20.4538 5.32232 16.2595 8.01586 12.4012L4.73603 10.1115L1.4562 7.82183C-2.16492 13.0089 -3.99997 18.7985 -3.99997 25.0875H3.14713e-05ZM4.73603 10.1115L7.98682 12.4423C10.5283 8.89752 15.0243 5.9101 22.1137 3.83904L20.992 -0.000473022L19.8704 -3.83999C11.7704 -1.47371 5.42906 2.2802 1.48525 7.78077L4.73603 10.1115ZM20.992 -0.000473022H16.992V5.37553H20.992H24.992V-0.000473022H20.992ZM20.992 5.37553L19.7989 1.55761C16.8225 2.48775 14.1777 3.64417 11.9325 5.07288L14.08 8.44753L16.2275 11.8222C17.7371 10.8615 19.7003 9.96997 22.1851 9.19345L20.992 5.37553ZM14.08 8.44753L11.9746 5.04647C9.76688 6.41316 7.91974 8.12519 6.66429 10.2594L10.112 12.2875L13.5598 14.3156C14.011 13.5485 14.8092 12.7006 16.1855 11.8486L14.08 8.44753ZM10.112 12.2875L6.72004 10.1675C5.44517 12.2073 4.83203 14.4862 4.83203 16.8955H8.83203H12.832C12.832 15.8915 13.0722 15.0984 13.504 14.4075L10.112 12.2875ZM8.83203 16.8955H4.83203C4.83203 18.755 5.39965 20.5832 6.71772 22.0895L9.72803 19.4555L12.7383 16.8215C12.7532 16.8385 12.7723 16.8638 12.7911 16.896C12.81 16.9283 12.8232 16.9585 12.8315 16.9821C12.8491 17.0324 12.832 17.0165 12.832 16.8955H8.83203ZM9.72803 19.4555L7.09402 22.4658C7.97212 23.2342 8.93604 23.9267 9.97404 24.5495L12.032 21.1195L14.09 17.6896C13.4214 17.2884 12.8493 16.8715 12.362 16.4452L9.72803 19.4555ZM12.032 21.1195L10.3768 24.761C11.1326 25.1045 11.9073 25.5254 12.7005 26.0302L14.848 22.6555L16.9955 19.2809C15.9115 18.591 14.8088 17.9879 13.6872 17.4781L12.032 21.1195ZM14.848 22.6555L12.7005 26.0302C13.1453 26.3132 13.4944 26.6623 13.7774 27.107L17.152 24.9595L20.5267 22.812C19.615 21.3794 18.4281 20.1925 16.9955 19.2809L14.848 22.6555ZM17.152 24.9595L13.9171 27.3122C13.9638 27.3764 14.176 27.7097 14.176 28.6715H18.176H22.176C22.176 26.5614 21.7056 24.42 20.387 22.6068L17.152 24.9595ZM18.176 28.6715H14.176C14.176 30.0495 13.7649 30.7408 13.1675 31.2439L15.744 34.3035L18.3206 37.3632C20.9658 35.1356 22.176 32.0723 22.176 28.6715H18.176ZM15.744 34.3035L13.1833 31.2306C12.5 31.8 11.5001 32.2235 9.85603 32.2235V36.2235V40.2235C12.9907 40.2235 15.916 39.367 18.3048 37.3764L15.744 34.3035Z" fill="#436A1F" mask="url(#path-1-inside-1_874_1037)"></path></svg>