<svg width="419" height="262" viewBox="0 0 419 262" fill="none" xmlns="http://www.w3.org/2000/svg">
<g clip-path="url(#clip0_2209_18)">
<mask id="mask0_2209_18" style="mask-type:luminance" maskUnits="userSpaceOnUse" x="0" y="0" width="419" height="262">
<path d="M419 0H0V262H419V0Z" fill="white"/>
</mask>
<g mask="url(#mask0_2209_18)">
<path d="M434.121 -17.4512H-15.1201V279.452H434.121V-17.4512Z" fill="#0B1C3C"/>
</g>
<mask id="mask1_2209_18" style="mask-type:luminance" maskUnits="userSpaceOnUse" x="0" y="0" width="419" height="262">
<path d="M419 0H0V262H419V0Z" fill="white"/>
</mask>
<g mask="url(#mask1_2209_18)">
<path d="M244.439 107.699H192.094V316.927H244.439V107.699Z" fill="url(#paint0_radial_2209_18)"/>
</g>
<mask id="mask2_2209_18" style="mask-type:luminance" maskUnits="userSpaceOnUse" x="0" y="0" width="419" height="262">
<path d="M419 0H0V262H419V0Z" fill="white"/>
</mask>
<g mask="url(#mask2_2209_18)">
<path d="M371.654 6.98244C384.984 6.98244 397.929 9.59995 410.128 14.7623C421.899 19.7431 432.465 26.8688 441.533 35.9412C450.601 45.0134 457.723 55.5846 462.701 67.361C467.861 79.5659 470.477 92.5165 470.477 105.853C470.477 119.19 467.861 132.141 462.701 144.346C457.723 156.122 450.6 166.693 441.533 175.766C432.465 184.838 421.899 191.963 410.128 196.944C397.929 202.107 384.984 204.724 371.654 204.724C358.323 204.724 345.379 202.107 333.18 196.944C321.409 191.963 310.843 184.838 301.775 175.766C292.707 166.693 285.585 156.122 280.606 144.346C275.447 132.141 272.83 119.19 272.83 105.854C272.83 92.5167 275.447 79.5659 280.606 67.3611C285.585 55.5847 292.707 45.0136 301.775 35.9413C310.843 26.869 321.409 19.7434 333.18 14.7624C345.379 9.59995 358.323 6.98244 371.654 6.98244ZM371.654 5.14844C358.077 5.14844 344.892 7.81468 332.466 13.0732C320.477 18.1465 309.714 25.4042 300.479 34.6443C291.243 43.8844 283.989 54.6514 278.918 66.6464C273.662 79.0785 270.997 92.2697 270.997 105.853C270.997 119.437 273.662 132.628 278.918 145.06C283.989 157.055 291.243 167.822 300.479 177.062C309.714 186.302 320.477 193.56 332.466 198.633C344.892 203.892 358.077 206.558 371.654 206.558C385.231 206.558 398.416 203.892 410.842 198.633C422.831 193.56 433.593 186.302 442.829 177.062C452.065 167.822 459.319 157.055 464.39 145.06C469.646 132.628 472.311 119.437 472.311 105.853C472.311 92.2697 469.646 79.0785 464.39 66.6464C459.319 54.6514 452.065 43.8844 442.829 34.6443C433.593 25.4041 422.831 18.1465 410.842 13.0732C398.416 7.81468 385.231 5.14844 371.654 5.14844Z" fill="url(#paint1_radial_2209_18)"/>
<path d="M371.654 11.7461C384.355 11.7461 396.679 14.2443 408.274 19.1517C419.479 23.8937 429.539 30.681 438.165 39.3106C446.79 47.9402 453.574 58.0052 458.314 69.2158C463.219 80.8168 465.716 93.1458 465.716 105.853C465.716 118.561 463.219 130.89 458.314 142.491C453.575 153.701 446.791 163.766 438.165 172.395C429.539 181.025 419.479 187.813 408.274 192.555C396.679 197.462 384.355 199.961 371.654 199.961C358.953 199.961 346.63 197.462 335.034 192.555C323.829 187.813 313.769 181.026 305.144 172.396C296.518 163.766 289.734 153.701 284.994 142.491C280.089 130.89 277.592 118.561 277.592 105.853C277.592 93.1461 280.089 80.817 284.994 69.2161C289.734 58.0058 296.518 47.9409 305.143 39.3113C313.768 30.6815 323.829 23.8941 335.034 19.1518C346.63 14.2443 358.953 11.7461 371.654 11.7461ZM371.654 9.91211C358.706 9.91211 346.142 12.4593 334.32 17.4626C322.897 22.2972 312.641 29.2165 303.848 38.0138C295.054 46.8111 288.138 57.0722 283.306 68.5015C278.305 80.3291 275.759 92.8988 275.759 105.853C275.759 118.808 278.305 131.377 283.306 143.205C288.138 154.634 295.054 164.895 303.847 173.692C312.64 182.49 322.896 189.409 334.32 194.244C346.142 199.247 358.706 201.795 371.654 201.795C384.603 201.795 397.166 199.247 408.988 194.244C420.412 189.409 430.668 182.49 439.461 173.693C448.254 164.895 455.17 154.634 460.003 143.205C465.004 131.378 467.549 118.808 467.549 105.853C467.549 92.8988 465.004 80.3292 460.003 68.5016C455.17 57.0725 448.254 46.8117 439.461 38.0144C430.668 29.2169 420.412 22.2974 408.988 17.4626C397.166 12.4593 384.603 9.91211 371.654 9.91211Z" fill="url(#paint2_radial_2209_18)"/>
<path d="M371.654 16.5098C383.726 16.5098 395.427 18.8887 406.419 23.5412C417.059 28.0445 426.613 34.4933 434.796 42.6802C442.979 50.8673 449.425 60.4261 453.926 71.0709C458.577 82.0679 460.955 93.7755 460.955 105.853C460.955 117.931 458.577 129.639 453.927 140.636C449.426 151.28 442.98 160.838 434.797 169.025C426.614 177.213 417.059 183.662 406.42 188.165C395.428 192.818 383.726 195.197 371.654 195.197C359.582 195.197 347.88 192.818 336.888 188.165C326.249 183.662 316.695 177.213 308.512 169.026C300.328 160.839 293.882 151.28 289.381 140.636C284.73 129.639 282.353 117.931 282.353 105.853C282.353 93.7755 284.73 82.0681 289.381 71.071C293.882 60.4266 300.328 50.8681 308.511 42.6811C316.694 34.4939 326.248 28.0447 336.888 23.5412C347.88 18.8887 359.582 16.5098 371.654 16.5098ZM371.654 14.6758C359.334 14.6758 347.392 17.104 336.174 21.8521C325.316 26.448 315.566 33.0291 307.216 41.3834C298.865 49.7379 292.287 59.493 287.693 70.3564C282.947 81.5794 280.52 93.5276 280.52 105.853C280.52 118.179 282.946 130.127 287.692 141.35C292.286 152.213 298.864 161.968 307.214 170.322C315.565 178.677 325.316 185.258 336.174 189.854C347.391 194.603 359.334 197.031 371.654 197.031C383.973 197.031 395.916 194.603 407.133 189.855C417.991 185.259 427.741 178.678 436.092 170.323C444.442 161.969 451.021 152.214 455.615 141.35C460.361 130.127 462.788 118.179 462.788 105.853C462.788 93.5278 460.361 81.5798 455.615 70.3568C451.021 59.4938 444.443 49.739 436.093 41.3846C427.742 33.0298 417.992 26.4482 407.134 21.8522C395.916 17.1041 383.974 14.6758 371.654 14.6758Z" fill="url(#paint3_radial_2209_18)"/>
<path d="M371.654 21.2735C383.097 21.2735 394.177 23.5331 404.565 27.9307C414.639 32.1952 423.687 38.3055 431.428 46.0497C439.169 53.7942 445.277 62.8468 449.539 72.9258C453.935 83.3191 456.194 94.405 456.194 105.853C456.194 117.302 453.935 128.387 449.54 138.781C445.277 148.859 439.17 157.911 431.429 165.655C423.688 173.4 414.64 179.511 404.566 183.776C394.178 188.174 383.097 190.433 371.654 190.433C360.211 190.433 349.131 188.174 338.743 183.776C328.669 179.512 319.621 173.401 311.881 165.657C304.14 157.913 298.032 148.86 293.769 138.781C289.373 128.388 287.114 117.302 287.114 105.854C287.114 94.4054 289.373 83.3196 293.768 72.9266C298.031 62.8483 304.138 53.7959 311.879 46.0517C319.62 38.307 328.668 32.1961 338.742 27.9313C349.13 23.5332 360.211 21.2735 371.654 21.2735ZM371.654 19.4395C359.963 19.4395 348.642 21.7486 338.029 26.2415C327.736 30.5986 318.492 36.8416 310.584 44.753C302.676 52.6647 296.436 61.9137 292.08 72.2114C287.589 82.8298 285.281 94.1565 285.281 105.853C285.281 117.55 287.589 128.876 292.08 139.495C296.435 149.792 302.675 159.04 310.583 166.952C318.491 174.864 327.735 181.107 338.028 185.465C348.642 189.958 359.963 192.267 371.654 192.267C383.345 192.267 394.666 189.958 405.279 185.465C415.572 181.108 424.816 174.865 432.724 166.954C440.632 159.042 446.872 149.793 451.228 139.495C455.719 128.877 458.027 117.55 458.027 105.853C458.027 94.1567 455.719 82.8304 451.228 72.212C446.873 61.9149 440.633 52.6663 432.725 44.7548C424.817 36.8428 415.573 30.5992 405.28 26.2419C394.666 21.7487 383.345 19.4395 371.654 19.4395Z" fill="url(#paint4_radial_2209_18)"/>
<path d="M371.654 26.0371C382.468 26.0371 392.927 28.1774 402.711 32.3203C412.219 36.3459 420.761 42.1179 428.059 49.4193C435.358 56.7213 441.128 65.2677 445.152 74.7808C449.293 84.5702 451.432 95.0346 451.432 105.853C451.432 116.672 449.293 127.136 445.152 136.925C441.129 146.438 435.359 154.984 428.062 162.285C420.763 169.588 412.221 175.36 402.712 179.386C392.927 183.529 382.468 185.67 371.654 185.67C360.841 185.67 350.382 183.53 340.597 179.387C331.089 175.361 322.547 169.589 315.249 162.288C307.951 154.986 302.181 146.439 298.156 136.926C294.015 127.137 291.876 116.672 291.876 105.854C291.876 95.035 294.015 84.5708 298.156 74.7817C302.18 65.2693 307.949 56.7233 315.247 49.4217C322.545 42.1195 331.088 36.3468 340.596 32.3207C350.381 28.1775 360.841 26.0371 371.654 26.0371ZM371.654 24.2031C360.592 24.2031 349.892 26.3932 339.883 30.631C330.157 34.7493 321.418 40.6541 313.953 48.1225C306.488 55.5915 300.585 64.3344 296.468 74.0663C292.232 84.0802 290.043 94.7854 290.043 105.853C290.043 116.921 292.232 127.626 296.468 137.64C300.584 147.371 306.486 156.113 313.951 163.582C321.417 171.051 330.155 176.957 339.882 181.075C349.892 185.313 360.592 187.503 371.654 187.503C382.717 187.503 393.416 185.313 403.425 181.075C413.152 176.957 421.89 171.052 429.355 163.584C436.821 156.115 442.724 147.372 446.841 137.64C451.077 127.626 453.266 116.921 453.266 105.853C453.266 94.7855 451.077 84.0807 446.841 74.067C442.725 64.3358 436.823 55.5933 429.358 48.1246C421.892 40.6553 413.154 34.7498 403.426 30.631C393.417 26.3933 382.717 24.2031 371.654 24.2031Z" fill="url(#paint5_radial_2209_18)"/>
<path d="M371.654 30.8008C381.838 30.8008 391.676 32.8219 400.857 36.7098C409.799 40.4966 417.835 45.9303 424.69 52.7889C431.547 59.6482 436.979 67.6884 440.764 76.6359C444.65 85.8213 446.671 95.6641 446.671 105.854C446.671 116.043 444.651 125.885 440.764 135.07C436.979 144.017 431.548 152.056 424.693 158.915C417.837 165.775 409.8 171.209 400.857 174.997C391.676 178.885 381.838 180.906 371.654 180.906C361.47 180.906 351.632 178.885 342.451 174.997C333.509 171.21 325.473 165.777 318.617 158.918C311.761 152.059 306.329 144.018 302.543 135.071C298.657 125.886 296.637 116.043 296.637 105.854C296.637 95.6645 298.657 85.822 302.543 76.6368C306.328 67.6904 311.759 59.6507 318.614 52.7918C325.47 45.9321 333.507 40.4977 342.45 36.7102C351.631 32.822 361.469 30.8008 371.654 30.8008ZM371.654 28.9668C361.22 28.9668 351.142 31.0378 341.737 35.0206C332.576 38.9001 324.344 44.4667 317.321 51.4922C310.298 58.5184 304.733 66.7553 300.855 75.9215C296.874 85.3309 294.804 95.4145 294.804 105.854C294.804 116.292 296.874 126.376 300.855 135.785C304.732 144.95 310.296 153.186 317.318 160.212C324.341 167.239 332.574 172.806 341.736 176.686C351.141 180.669 361.22 182.74 371.654 182.74C382.088 182.74 392.166 180.669 401.571 176.687C410.731 172.807 418.964 167.24 425.986 160.215C433.009 153.189 438.574 144.952 442.452 135.786C446.434 126.376 448.504 116.293 448.504 105.854C448.504 95.4148 446.434 85.3316 442.453 75.9226C438.575 66.7573 433.011 58.5212 425.989 51.4953C418.966 44.4687 410.733 38.9012 401.571 35.0211C392.167 31.038 382.088 28.9668 371.654 28.9668Z" fill="url(#paint6_radial_2209_18)"/>
<path d="M371.654 35.5645C381.209 35.5645 390.425 37.4662 399.003 41.0992C407.379 44.6472 414.909 49.7425 421.322 56.1583C427.736 62.575 432.83 70.1092 436.377 78.4907C440.009 87.0722 441.91 96.2934 441.91 105.853C441.91 115.413 440.009 124.634 436.377 133.215C432.831 141.596 427.738 149.129 421.325 155.545C414.912 161.962 407.381 167.058 399.004 170.607C390.426 174.24 381.21 176.142 371.654 176.142C362.099 176.142 352.883 174.241 344.306 170.608C335.929 167.06 328.399 161.964 321.986 155.549C315.572 149.132 310.478 141.598 306.931 133.216C303.3 124.635 301.399 115.413 301.399 105.853C301.399 96.294 303.3 87.0731 306.931 78.4917C310.477 70.1113 315.57 62.578 321.983 56.1616C328.396 49.7444 335.927 44.6483 344.304 41.0996C352.882 37.4663 362.099 35.5645 371.654 35.5645ZM371.654 33.7305C361.849 33.7305 352.392 35.6825 343.592 39.41C334.996 43.0507 327.27 48.2792 320.69 54.8618C314.109 61.4452 308.882 69.1761 305.243 77.7765C301.517 86.5812 299.565 96.0434 299.565 105.854C299.565 115.663 301.516 125.125 305.242 133.929C308.881 142.529 314.107 150.259 320.687 156.842C327.267 163.426 334.994 168.655 343.59 172.296C352.391 176.024 361.848 177.977 371.654 177.977C381.459 177.977 390.916 176.025 399.716 172.297C408.312 168.656 416.038 163.428 422.618 156.845C429.199 150.262 434.426 142.531 438.065 133.931C441.791 125.126 443.743 115.664 443.743 105.854C443.743 96.0439 441.792 86.5822 438.066 77.7776C434.427 69.1784 429.201 61.4484 422.622 54.8654C416.041 48.2814 408.314 43.0519 399.718 39.4106C390.917 35.6826 381.46 33.7305 371.654 33.7305Z" fill="url(#paint7_radial_2209_18)"/>
<path d="M371.653 40.3281C380.579 40.3281 389.174 42.1105 397.148 45.4888C404.959 48.7979 411.982 53.5548 417.953 59.5279C423.925 65.502 428.681 72.53 431.989 80.3456C435.366 88.3234 437.148 96.923 437.148 105.853C437.148 114.783 435.366 123.383 431.989 131.36C428.682 139.174 423.927 146.202 417.957 152.175C411.986 158.15 404.961 162.908 397.149 166.218C389.175 169.596 380.58 171.379 371.653 171.379C362.728 171.379 354.133 169.596 346.159 166.218C338.348 162.909 331.325 158.152 325.354 152.179C319.382 146.205 314.626 139.177 311.318 131.361C307.941 123.384 306.159 114.784 306.159 105.854C306.159 96.9235 307.941 88.3244 311.317 80.3471C314.625 72.5327 319.38 65.5056 325.35 59.532C331.321 53.5573 338.346 48.7994 346.158 45.4894C354.132 42.1107 362.727 40.3281 371.653 40.3281ZM371.653 38.4941C362.477 38.4941 353.641 40.3271 345.445 43.7995C337.416 47.2014 330.195 52.0917 324.058 58.2314C317.92 64.372 313.031 71.5969 309.63 79.6314C306.158 87.8316 304.326 96.6723 304.326 105.854C304.326 115.034 306.158 123.874 309.629 132.074C313.029 140.108 317.917 147.331 324.054 153.472C330.192 159.613 337.413 164.504 345.444 167.907C353.64 171.38 362.477 173.213 371.653 173.213C380.83 173.213 389.666 171.38 397.862 167.907C405.891 164.506 413.112 159.615 419.249 153.476C425.387 147.335 430.276 140.11 433.677 132.076C437.148 123.875 438.981 115.035 438.981 105.853C438.981 96.6727 437.149 87.8325 433.678 79.6327C430.277 71.5994 425.39 64.3755 419.253 58.2353C413.115 52.094 405.894 47.2026 397.863 43.7999C389.667 40.3272 380.83 38.4941 371.653 38.4941Z" fill="url(#paint8_radial_2209_18)"/>
<path d="M371.654 45.0918C379.95 45.0918 387.924 46.755 395.294 49.8783C402.539 52.9487 409.057 57.3672 414.585 62.8976C420.115 68.4291 424.532 74.9509 427.602 82.2008C430.724 89.5747 432.387 97.5527 432.387 105.854C432.387 114.154 430.724 122.132 427.602 129.505C424.534 136.754 420.117 143.274 414.589 148.805C409.061 154.337 402.542 158.757 395.295 161.828C387.925 164.952 379.951 166.615 371.654 166.615C363.357 166.615 355.384 164.952 348.014 161.829C340.769 158.759 334.251 154.34 328.723 148.81C323.193 143.278 318.776 136.756 315.706 129.507C312.584 122.133 310.921 114.155 310.921 105.854C310.921 97.5532 312.583 89.5757 315.705 82.2023C318.774 74.9538 323.191 68.433 328.718 62.902C334.247 57.3699 340.766 52.9502 348.012 49.8789C355.383 46.7553 363.357 45.0918 371.654 45.0918ZM371.654 43.2578C363.106 43.2578 354.892 44.9717 347.3 48.189C339.836 51.3523 333.122 55.9043 327.427 61.6011C321.731 67.2989 317.18 74.0178 314.017 81.4865C310.801 89.0821 309.088 97.3012 309.088 105.854C309.088 114.405 310.801 122.624 314.017 130.219C317.179 137.687 321.728 144.404 327.422 150.102C333.118 155.8 339.833 160.353 347.298 163.518C354.89 166.735 363.106 168.449 371.654 168.449C380.202 168.449 388.416 166.735 396.008 163.518C403.472 160.355 410.186 155.803 415.881 150.106C421.576 144.408 426.128 137.69 429.29 130.221C432.506 122.625 434.22 114.406 434.22 105.854C434.22 97.302 432.507 89.0834 429.291 81.4882C426.129 74.0208 421.579 67.3031 415.885 61.6058C410.19 55.9073 403.474 51.3539 396.009 48.1898C388.417 44.9719 380.202 43.2578 371.654 43.2578Z" fill="url(#paint9_radial_2209_18)"/>
<path d="M371.654 49.8555C379.321 49.8555 386.674 51.3993 393.44 54.2678C400.119 57.0994 406.131 61.1794 411.217 66.2672C416.304 71.3561 420.384 77.3718 423.215 84.0558C426.082 90.8257 427.626 98.1823 427.626 105.854C427.626 113.524 426.082 120.88 423.215 127.65C420.385 134.332 416.307 140.347 411.222 145.435C406.135 150.525 400.123 154.606 393.442 157.439C386.675 160.308 379.322 161.852 371.654 161.852C363.987 161.852 356.635 160.308 349.868 157.439C343.189 154.608 337.177 150.528 332.091 145.44C327.004 140.351 322.925 134.336 320.094 127.652C317.226 120.882 315.683 113.525 315.683 105.854C315.683 98.1828 317.226 90.8269 320.093 84.0574C322.923 77.3749 327.001 71.3604 332.086 66.2721C337.173 61.1825 343.186 57.1011 349.866 54.2685C356.633 51.3996 363.986 49.8555 371.654 49.8555ZM371.654 48.0215C363.735 48.0215 356.142 49.6164 349.154 52.5785C342.256 55.5029 336.048 59.7168 330.796 64.9705C325.543 70.2256 321.329 76.4384 318.405 83.3414C315.444 90.3325 313.85 97.9301 313.85 105.854C313.85 113.776 315.444 121.373 318.404 128.364C321.327 135.265 325.539 141.477 330.791 146.731C336.043 151.987 342.253 156.202 349.153 159.128C356.14 162.09 363.734 163.686 371.654 163.686C379.573 163.686 387.166 162.091 394.154 159.129C401.052 156.204 407.26 151.99 412.512 146.737C417.766 141.481 421.979 135.269 424.903 128.366C427.864 121.375 429.459 113.777 429.459 105.854C429.459 97.9308 427.864 90.3337 424.904 83.3431C421.981 76.4418 417.769 70.2303 412.518 64.9758C407.265 59.7199 401.055 55.5046 394.155 52.5792C387.168 49.6167 379.574 48.0215 371.654 48.0215Z" fill="url(#paint10_radial_2209_18)"/>
<path d="M371.654 54.6192C378.692 54.6192 385.423 56.0436 391.585 58.6572C397.699 61.25 403.204 64.9916 407.848 69.6366C412.493 74.2829 416.234 79.7924 418.827 85.9106C421.439 92.0768 422.864 98.8116 422.864 105.854C422.864 112.895 421.44 119.629 418.827 125.795C416.236 131.911 412.496 137.42 407.853 142.065C403.209 146.712 397.702 150.455 391.587 153.049C385.424 155.663 378.692 157.088 371.654 157.088C364.616 157.088 357.885 155.664 351.722 153.05C345.608 150.457 340.103 146.716 335.459 142.071C330.815 137.424 327.073 131.915 324.481 125.797C321.868 119.631 320.443 112.896 320.443 105.854C320.443 98.8124 321.867 92.0782 324.48 85.9124C327.071 79.7959 330.811 74.2878 335.454 69.6421C340.098 64.995 345.605 61.2518 351.72 58.658C357.883 56.0439 364.615 54.6192 371.654 54.6192ZM371.654 52.7852C364.363 52.7852 357.391 54.261 351.008 56.968C344.676 59.6536 338.973 63.5293 334.164 68.3402C329.353 73.1525 325.477 78.8593 322.792 85.1965C320.086 91.5829 318.61 98.559 318.61 105.854C318.61 113.147 320.085 120.123 322.791 126.509C325.476 132.844 329.349 138.55 334.158 143.361C338.968 148.174 344.672 152.052 351.006 154.739C357.39 157.446 364.363 158.922 371.654 158.922C378.944 158.922 385.916 157.446 392.299 154.739C398.631 152.054 404.334 148.178 409.143 143.367C413.954 138.555 417.83 132.848 420.515 126.511C423.221 120.124 424.697 113.148 424.697 105.854C424.697 98.56 423.222 91.5845 420.516 85.1985C417.832 78.8631 413.958 73.1577 409.149 68.3461C404.339 63.533 398.635 59.6556 392.301 56.9689C385.918 54.2613 378.945 52.7852 371.654 52.7852Z" fill="url(#paint11_radial_2209_18)"/>
<path d="M371.654 59.3828C397.266 59.3828 418.102 80.2295 418.102 105.854C418.102 131.478 397.266 152.324 371.654 152.324C346.042 152.324 325.205 131.478 325.205 105.854C325.205 80.2297 346.042 59.3828 371.654 59.3828ZM371.654 57.5488C345.031 57.5488 323.372 79.2183 323.372 105.854C323.372 132.489 345.031 154.158 371.654 154.158C398.277 154.158 419.936 132.489 419.936 105.854C419.936 79.2182 398.277 57.5488 371.654 57.5488Z" fill="url(#paint12_radial_2209_18)"/>
</g>
<mask id="mask3_2209_18" style="mask-type:luminance" maskUnits="userSpaceOnUse" x="0" y="0" width="419" height="262">
<path d="M419 0H0V262H419V0Z" fill="white"/>
</mask>
<g mask="url(#mask3_2209_18)">
<path d="M167.546 111.782L115.171 111.781C115.171 95.7357 108.926 80.6504 97.5851 69.3044C86.2444 57.9584 71.1663 51.7097 55.1282 51.7097C22.0204 51.7097 -4.91504 78.6578 -4.91504 111.782L-57.29 111.781C-57.29 96.6094 -54.3141 81.8773 -48.4448 67.9943C-42.7814 54.5981 -34.6792 42.5727 -24.3633 32.252C-14.0477 21.9312 -2.02787 13.8252 11.3619 8.15901C25.2383 2.28707 39.9634 -0.69043 55.1282 -0.69043C70.293 -0.69043 85.0181 2.28707 98.8944 8.15901C112.284 13.8252 124.304 21.9312 134.62 32.2519C144.936 42.5726 153.038 54.5981 158.701 67.9943C164.57 81.8774 167.546 96.6096 167.546 111.782Z" fill="url(#paint13_radial_2209_18)"/>
</g>
<mask id="mask4_2209_18" style="mask-type:luminance" maskUnits="userSpaceOnUse" x="0" y="0" width="419" height="262">
<path d="M419 0H0V262H419V0Z" fill="white"/>
</mask>
<g mask="url(#mask4_2209_18)">
<path d="M192.095 106.162L192.094 105.972C192.094 81.6208 196.867 57.9829 206.281 35.7156C210.804 25.0163 216.401 14.6986 222.917 5.04904C229.366 -4.50151 236.772 -13.4816 244.928 -21.6417C253.084 -29.8015 262.06 -37.2105 271.606 -43.6629C281.25 -50.1817 291.563 -55.7817 302.258 -60.3074C324.515 -69.7256 348.141 -74.501 372.481 -74.501L372.6 -74.5003V-72.6663L372.481 -72.667C348.388 -72.667 325.001 -67.9402 302.972 -58.6181C292.387 -54.1387 282.179 -48.5957 272.632 -42.1432C263.183 -35.7561 254.298 -28.4221 246.224 -20.3448C238.151 -12.2672 230.82 -3.37805 224.436 6.07582C217.987 15.6273 212.446 25.8399 207.969 36.4301C198.651 58.4701 193.927 81.8676 193.927 105.972L193.928 106.16L192.095 106.162Z" fill="url(#paint14_radial_2209_18)"/>
<path d="M196.685 106.162L196.684 105.972C196.684 82.2638 201.332 59.2503 210.498 37.5708C214.903 27.1547 220.353 17.1098 226.698 7.71513C232.977 -1.58298 240.187 -10.3257 248.128 -18.2703C256.069 -26.2149 264.808 -33.4284 274.101 -39.7107C283.491 -46.0579 293.532 -51.5105 303.943 -55.9169C325.611 -65.0875 348.613 -69.7373 372.309 -69.7373L372.428 -69.7366V-67.9026L372.309 -67.9033C348.86 -67.9033 326.098 -63.3022 304.658 -54.228C294.355 -49.8675 284.419 -44.472 275.128 -38.1911C265.931 -31.9743 257.283 -24.8357 249.424 -16.9736C241.566 -9.11155 234.43 -0.45966 228.216 8.74165C221.938 18.0382 216.545 27.9781 212.187 38.2852C203.116 59.7373 198.517 82.5105 198.517 105.972L198.518 106.16L196.685 106.162Z" fill="url(#paint15_radial_2209_18)"/>
<path d="M201.275 106.162L201.273 105.972C201.273 82.9074 205.796 60.5179 214.716 39.426C219.002 29.2928 224.305 19.5207 230.478 10.3811C236.587 1.33568 243.602 -7.16975 251.328 -14.899C259.054 -22.6283 267.556 -29.6463 276.597 -35.7584C285.732 -41.934 295.5 -47.2392 305.629 -51.5267C326.709 -60.4494 349.086 -64.9736 372.138 -64.9736L372.258 -64.9728L372.255 -63.1388L372.138 -63.1396C349.332 -63.1396 327.196 -58.6641 306.343 -49.8376C296.323 -45.5962 286.66 -40.348 277.623 -34.2387C268.678 -28.192 260.268 -21.2488 252.624 -13.6021C244.981 -5.95525 238.041 2.45927 231.997 11.408C225.89 20.4495 220.644 30.1166 216.404 40.1408C207.581 61.0053 203.106 83.1542 203.106 105.972L203.108 106.16L201.275 106.162Z" fill="url(#paint16_radial_2209_18)"/>
<path d="M205.864 106.162L205.863 105.972C205.863 83.5505 210.261 61.7851 218.934 41.281C223.101 31.4311 228.257 21.9316 234.258 13.0469C240.198 4.25409 247.018 -4.01411 254.528 -11.5279C262.039 -19.0418 270.304 -25.8643 279.092 -31.8061C287.973 -37.8103 297.469 -42.9681 307.315 -47.1364C327.806 -55.8114 349.558 -60.21 371.967 -60.21L372.087 -60.2092L372.084 -58.3752L371.967 -58.376C349.805 -58.376 328.293 -54.0261 308.029 -45.4473C298.292 -41.3251 288.902 -36.2243 280.119 -30.2865C271.427 -24.41 263.253 -17.6623 255.825 -10.231C248.396 -2.79961 241.652 5.3778 235.777 14.074C229.842 22.8607 224.743 32.2551 220.623 41.996C212.046 62.2728 207.697 83.7975 207.697 105.973L207.698 106.16L205.864 106.162Z" fill="url(#paint17_radial_2209_18)"/>
<path d="M212.287 106.161H210.454L210.453 105.973C210.453 84.1941 214.726 63.0529 223.152 43.1363C227.2 33.5694 232.209 24.3429 238.039 15.713C243.808 7.17315 250.433 -0.857805 257.728 -8.15647C265.024 -15.4547 273.051 -22.0819 281.588 -27.8538C290.214 -33.6863 299.437 -38.6968 309 -42.746C328.903 -51.1733 350.03 -55.4463 371.795 -55.4463L371.915 -55.4455L371.912 -53.6115L371.795 -53.6123C350.277 -53.6123 329.39 -49.3881 309.714 -41.0571C300.26 -37.054 291.142 -32.1005 282.614 -26.3343C274.174 -20.6278 266.237 -14.0756 259.024 -6.8597C251.811 0.356567 245.262 8.2966 239.557 16.7399C233.793 25.2717 228.842 34.3932 224.84 43.8511C216.51 63.5402 212.286 84.4409 212.286 105.972L212.287 106.161Z" fill="url(#paint18_radial_2209_18)"/>
<path d="M215.044 106.163L215.043 105.973C215.043 84.837 219.19 64.3201 227.37 44.9915C231.299 35.7081 236.16 26.7544 241.819 18.379C247.419 10.0914 253.848 2.29798 260.928 -4.78519C268.009 -11.8682 275.799 -18.2999 284.083 -23.9015C292.455 -29.5625 301.405 -34.4255 310.686 -38.3556C330.001 -46.5353 350.503 -50.6826 371.623 -50.6826L371.742 -50.682V-48.848L371.623 -48.8486C350.75 -48.8486 330.488 -44.75 311.4 -36.6668C302.229 -32.7829 293.384 -27.9769 285.11 -22.3822C276.922 -16.8457 269.223 -10.4889 262.225 -3.48842C255.227 3.51222 248.872 11.2152 243.338 19.4061C237.745 27.6833 232.941 36.532 229.058 45.7065C220.975 64.8075 216.876 85.0838 216.876 105.972L216.878 106.159L215.044 106.163Z" fill="url(#paint19_radial_2209_18)"/>
<path d="M219.634 106.163L219.633 105.973C219.633 85.4802 223.655 65.5875 231.588 46.8466C235.398 37.8466 240.112 29.1657 245.6 21.0451C251.029 13.0102 257.263 5.45388 264.129 -1.41379C270.994 -8.28147 278.547 -14.5176 286.579 -19.9491C294.696 -25.4385 303.374 -30.1543 312.371 -33.9653C331.098 -41.8971 350.976 -45.9189 371.452 -45.9189L371.572 -45.9182L371.569 -44.0842L371.452 -44.0849C351.223 -44.0849 331.585 -40.112 313.086 -32.2765C304.198 -28.5117 295.625 -23.8529 287.605 -18.4298C279.67 -13.0635 272.207 -6.90217 265.425 -0.117024C258.642 6.66825 252.483 14.1338 247.118 22.0721C241.697 30.0949 237.04 38.6708 233.276 47.5619C225.44 66.0752 221.466 85.7273 221.466 105.973L221.467 106.159L219.634 106.163Z" fill="url(#paint20_radial_2209_18)"/>
<path d="M226.057 106.161H224.224L224.223 105.973C224.223 86.1236 228.12 66.8549 235.806 48.7018C239.497 39.9847 244.064 31.5766 249.38 23.7111C254.64 15.9285 260.679 8.60954 267.329 1.95736C273.978 -4.69469 281.295 -10.7354 289.074 -15.997C296.937 -21.3151 305.342 -25.8833 314.057 -29.575C332.195 -37.2591 351.448 -41.1553 371.28 -41.1553L371.401 -41.1545L371.398 -39.3205L371.28 -39.3213C351.695 -39.3213 332.682 -35.4739 314.771 -27.8862C306.166 -24.2406 297.866 -19.7293 290.101 -14.4775C282.418 -9.28127 275.192 -3.3154 268.625 3.25425C262.057 9.82391 256.093 17.0522 250.898 24.7384C245.648 32.5059 241.138 40.8091 237.494 49.4172C229.904 67.3426 226.056 86.3706 226.056 105.973L226.057 106.161Z" fill="url(#paint21_radial_2209_18)"/>
<path d="M228.814 106.163L228.812 105.973C228.812 86.7663 232.585 68.1218 240.024 50.5569C243.596 42.123 248.015 33.9876 253.16 26.3769C258.25 18.8472 264.094 11.7656 270.529 5.32862C276.963 -1.10793 284.042 -6.95315 291.569 -12.0447C299.178 -17.1912 307.311 -21.6122 315.742 -25.1847C333.292 -32.621 351.92 -36.3916 371.109 -36.3916L371.227 -36.3909V-34.5569L371.109 -34.5576C352.167 -34.5576 333.779 -30.8359 316.457 -23.496C308.134 -19.9696 300.107 -15.6057 292.596 -10.5255C285.165 -5.49918 278.177 0.271105 271.825 6.62539C265.472 12.9799 259.703 19.971 254.679 27.4042C249.6 34.9169 245.237 42.9472 241.711 51.2723C234.369 68.6097 230.645 87.0134 230.645 105.973L230.647 106.159L228.814 106.163Z" fill="url(#paint22_radial_2209_18)"/>
<path d="M233.404 106.163L233.402 105.973C233.402 87.4094 237.049 69.389 244.241 52.412C247.694 44.2617 251.967 36.3991 256.941 29.0429C261.861 21.7653 267.509 14.921 273.729 8.6999C279.948 2.47871 286.79 -3.17106 294.065 -8.09247C301.419 -13.0673 309.279 -17.3409 317.428 -20.7944C334.389 -27.983 352.393 -31.6279 370.937 -31.6279L371.056 -31.6273V-29.7933L370.937 -29.7939C352.64 -29.7939 334.877 -26.1978 318.143 -19.1058C310.103 -15.6983 302.348 -11.4818 295.092 -6.57326C287.913 -1.71723 281.162 3.85774 275.025 9.99666C268.888 16.1353 263.314 22.8892 258.459 30.0702C253.552 37.3285 249.336 45.0861 245.929 53.1275C238.833 69.8769 235.235 87.6565 235.235 105.972L235.237 106.159L233.404 106.163Z" fill="url(#paint23_radial_2209_18)"/>
<path d="M237.992 106.163L237.991 105.973C237.991 88.0525 241.513 70.6562 248.458 54.2671C251.793 46.3992 255.918 38.8096 260.72 31.7089C265.47 24.6845 270.923 18.0774 276.928 12.0712C282.932 6.06469 289.538 0.610502 296.559 -4.14008C303.658 -8.94333 311.246 -13.0694 319.112 -16.404C335.485 -23.3449 352.864 -26.8643 370.764 -26.8643L370.885 -26.8635L370.882 -25.0295L370.764 -25.0303C353.111 -25.0303 335.973 -21.5598 319.827 -14.7153C312.07 -11.427 304.587 -7.35783 297.586 -2.62087C290.661 2.0646 284.146 7.44398 278.224 13.3682C272.301 19.2923 266.923 25.8087 262.238 32.7367C257.503 39.7394 253.434 47.2242 250.146 54.9831C243.297 71.1446 239.824 88.2999 239.824 105.973L239.825 106.16L237.992 106.163Z" fill="url(#paint24_radial_2209_18)"/>
<path d="M242.582 106.163L242.581 105.973C242.581 35.3529 300.007 -22.1006 370.593 -22.1006L370.713 -22.0998L370.71 -20.2658L370.593 -20.2666C301.018 -20.2666 244.414 36.3641 244.414 105.973L244.415 106.16L242.582 106.163Z" fill="url(#paint25_radial_2209_18)"/>
</g>
<mask id="mask5_2209_18" style="mask-type:luminance" maskUnits="userSpaceOnUse" x="0" y="0" width="419" height="262">
<path d="M419 0H0V262H419V0Z" fill="white"/>
</mask>
<g mask="url(#mask5_2209_18)">
<path d="M567.86 285.529H371.653C347.42 285.529 323.899 280.775 301.741 271.398C291.094 266.893 280.827 261.318 271.225 254.828C261.721 248.404 252.785 241.027 244.664 232.903C236.544 224.779 229.171 215.839 222.75 206.33C216.264 196.724 210.691 186.452 206.188 175.799C196.816 153.631 192.064 130.098 192.064 105.854C192.064 35.674 134.996 -21.4213 64.8496 -21.4213V-73.8213C89.0825 -73.8213 112.604 -69.067 134.762 -59.6907C145.409 -55.1854 155.676 -49.6101 165.278 -43.1201C174.782 -36.6963 183.718 -29.3198 191.838 -21.1957C199.959 -13.0715 207.332 -4.131 213.752 5.37751C220.239 14.984 225.812 25.256 230.315 35.9081C239.687 58.0762 244.439 81.6093 244.439 105.854C244.439 176.033 301.507 233.129 371.653 233.129H567.86V285.529H567.86Z" fill="url(#paint26_radial_2209_18)"/>
</g>
<mask id="mask6_2209_18" style="mask-type:luminance" maskUnits="userSpaceOnUse" x="0" y="0" width="419" height="262">
<path d="M419 0H0V262H419V0Z" fill="white"/>
</mask>
<g mask="url(#mask6_2209_18)">
<path d="M-60.0421 314.273L-61.5234 312.791L32.3487 218.874C50.6319 200.582 60.701 176.261 60.701 150.393V111.781H62.796V150.393C62.796 176.821 52.509 201.668 33.8301 220.356L-60.0421 314.273Z" fill="url(#paint27_radial_2209_18)"/>
<path d="M-56.675 317.641L-58.1562 316.159L20.1406 237.825C21.5323 236.432 36.4571 221.364 37.3035 220.301L37.3425 220.243L37.4074 220.175C43.6016 213.736 48.9001 206.538 53.1559 198.781C57.4345 190.985 60.6502 182.639 62.714 173.977C64.5153 166.414 65.4387 158.596 65.4583 150.738L65.4587 150.714C65.4612 150.555 65.4629 147.493 65.4629 147.221V111.781H67.5579V147.221C67.5579 147.254 67.5567 150.422 67.5534 150.746C67.5333 158.764 66.5907 166.744 64.752 174.463C62.6446 183.308 59.3611 191.829 54.9925 199.789C50.6511 207.702 45.2478 215.045 38.9321 221.613C37.409 223.423 21.7829 239.146 21.622 239.307L-56.675 317.641Z" fill="url(#paint28_radial_2209_18)"/>
<path d="M-53.3087 321.009L-54.79 319.527L25.0643 239.635C27.1132 237.585 41.4862 222.923 42.3622 221.608L42.4085 221.539L42.4654 221.477C48.5782 214.877 53.8083 207.535 58.0109 199.654C62.2331 191.741 65.4123 183.293 67.4601 174.544C69.2485 166.901 70.1751 159.008 70.2145 151.084L70.2149 151.063C70.2202 150.86 70.2235 147.951 70.2235 147.538V111.781H72.3185V147.538C72.3185 147.57 72.3161 150.753 72.3095 151.102C72.2688 159.181 71.3236 167.228 69.5 175.022C67.4107 183.948 64.1669 192.567 59.8591 200.641C55.5827 208.66 50.2632 216.133 44.0477 222.852C42.505 224.95 26.7035 240.959 26.5457 241.117L-53.3087 321.009Z" fill="url(#paint29_radial_2209_18)"/>
<path d="M-49.9416 324.378L-51.4229 322.896L29.989 241.445C32.2947 239.138 46.0614 224.956 47.4348 222.895L47.4757 222.834L47.5248 222.779C53.556 216.018 58.7178 208.531 62.8669 200.527C67.0329 192.497 70.1754 183.945 72.2073 175.111C73.9825 167.388 74.9126 159.421 74.9718 151.43L74.972 151.411C74.9803 151.091 74.9851 148.316 74.9851 147.855V111.781H77.0801V147.855C77.0801 148.055 77.0762 151.026 77.0666 151.453C77.0059 159.594 76.0579 167.712 74.249 175.581C72.1774 184.588 68.9737 193.305 64.7264 201.492C60.5074 209.631 55.261 217.246 49.1326 224.124C47.3548 226.672 33.2395 241.157 31.4701 242.927L-49.9416 324.378Z" fill="url(#paint30_radial_2209_18)"/>
<path d="M-46.5752 327.746L-48.0566 326.264L34.9127 243.255C37.9462 240.22 50.6711 226.937 52.5065 224.183L52.542 224.13L52.5837 224.081C58.5335 217.158 63.6269 209.527 67.7223 201.4C71.8319 193.252 74.9378 184.598 76.9536 175.678C78.7157 167.875 79.6492 159.833 79.7281 151.776L79.7284 151.759C79.7399 151.315 79.7459 148.645 79.7459 148.173V111.781H81.8409V148.172C81.8409 148.572 81.8354 151.289 81.8229 151.805C81.7418 160.008 80.7912 168.195 78.9971 176.14C76.9435 185.227 73.7794 194.044 69.5929 202.344C65.4303 210.604 60.2558 218.361 54.2123 225.401C51.9605 228.708 38.4104 242.72 36.3941 244.737L-46.5752 327.746Z" fill="url(#paint31_radial_2209_18)"/>
<path d="M-43.208 331.115L-44.6895 329.633L39.8375 245.065C43.3355 241.566 55.1984 229.042 57.5793 225.47L57.6442 225.383C63.5127 218.297 68.5376 210.522 72.5791 202.273C76.6324 194.008 79.7014 185.251 81.7011 176.245C83.4499 168.363 84.3868 160.247 84.4856 152.122L84.4859 152.108C84.4998 151.563 84.5079 149.155 84.5079 148.49V111.781H86.6029V148.49C86.6029 149.039 86.5955 151.541 86.5803 152.154C86.4794 160.421 85.5259 168.679 83.7463 176.699C81.7107 185.867 78.5862 194.782 74.4601 203.196C70.3541 211.577 65.2505 219.477 59.2913 226.679C56.6006 230.673 44.2198 243.645 41.3189 246.548L-43.208 331.115Z" fill="url(#paint32_radial_2209_18)"/>
<path d="M-39.841 334.483L-41.3223 333.001L44.7622 246.876C48.6656 242.97 59.7679 231.085 62.6518 226.758L62.7048 226.685C68.4924 219.436 73.4486 211.516 77.4358 203.146C81.4326 194.763 84.4648 185.904 86.4482 176.812C88.1838 168.851 89.1241 160.66 89.2429 152.468C89.2603 151.785 89.2696 149.566 89.2696 148.807V111.781H91.3646V148.807C91.3646 149.422 91.3562 151.78 91.3375 152.51C91.217 160.831 90.2606 169.161 88.4952 177.259C86.4773 186.508 83.3927 195.521 79.327 204.048C75.2776 212.549 70.2449 220.594 64.3694 227.959C61.3278 232.496 50.2985 244.301 46.2438 248.358L-39.841 334.483Z" fill="url(#paint33_radial_2209_18)"/>
<path d="M-36.4746 337.851L-37.9561 336.369L49.6859 248.686C54.1696 244.2 64.3161 233.157 67.7236 228.045L67.7651 227.987C73.4715 220.574 78.359 212.51 82.292 204.018C86.2321 195.518 89.2275 186.556 91.1947 177.379C92.917 169.339 93.8607 161.074 93.9992 152.814C94.0194 152.024 94.0304 149.964 94.0304 149.124V111.781H96.1254V149.124C96.1254 149.997 96.1145 152.049 96.0938 152.858C95.9532 161.244 94.994 169.645 93.2432 177.818C91.2434 187.148 88.1983 196.259 84.1927 204.9C80.1996 213.521 75.2384 221.709 69.4465 229.238C65.9444 234.476 55.6936 245.639 51.1673 250.168L-36.4746 337.851Z" fill="url(#paint34_radial_2209_18)"/>
<path d="M-33.1074 341.22L-34.5889 339.738L54.6107 250.496C59.7448 245.359 68.921 235.147 72.7963 229.332L72.8268 229.289C78.4521 221.711 83.2709 213.502 87.1491 204.891C91.0328 196.273 93.9911 187.208 95.9419 177.945C97.6509 169.827 98.5979 161.488 98.7564 153.16C98.7797 152.251 98.7921 150.418 98.7921 149.441V111.781H100.887V149.441C100.887 150.429 100.874 152.287 100.851 153.207C100.69 161.659 99.7281 170.13 97.992 178.377C96.0102 187.787 93.0048 196.997 89.0591 205.752C85.1227 214.493 80.2327 222.825 74.5245 230.517C70.566 236.448 61.2813 246.786 56.0922 251.978L-33.1074 341.22Z" fill="url(#paint35_radial_2209_18)"/>
<path d="M-29.7414 344.588L-31.2227 343.106L59.5344 252.306C65.3211 246.516 73.4768 237.208 77.8679 230.62L77.888 230.591C83.4321 222.848 88.182 214.495 92.0056 205.763C95.8327 197.028 98.754 187.86 100.689 178.512C102.384 170.316 103.334 161.902 103.513 153.506C103.539 152.492 103.553 150.819 103.553 149.758V111.781H105.648V149.758C105.648 150.859 105.634 152.517 105.607 153.555C105.426 162.074 104.462 170.616 102.74 178.937C100.776 188.428 97.8101 197.736 93.9247 206.604C90.045 215.464 85.2254 223.941 79.601 231.798C75.1321 238.498 66.8713 247.93 61.016 253.788L-29.7414 344.588Z" fill="url(#paint36_radial_2209_18)"/>
<path d="M-26.3742 347.957L-27.8555 346.475L64.4591 254.116C71.2706 247.301 78.3524 238.791 82.9406 231.907L82.9504 231.893C88.4138 223.984 93.0948 215.486 96.8633 206.635C100.633 197.783 103.518 188.512 105.436 179.079C107.118 170.805 108.072 162.317 108.27 153.852C108.298 152.784 108.315 151.337 108.315 150.076V111.781H110.41V150.076C110.41 151.354 110.392 152.821 110.365 153.904C110.163 162.49 109.196 171.101 107.489 179.497C105.543 189.068 102.616 198.475 98.7906 207.456C94.968 216.434 90.2203 225.054 84.679 233.077C80.0197 240.066 72.8404 248.695 65.9404 255.598L-26.3742 347.957Z" fill="url(#paint37_radial_2209_18)"/>
<path d="M-23.007 351.325L-24.4883 349.843L69.3838 255.926C76.3122 248.994 82.5801 241.346 88.0132 233.195C93.3957 225.119 98.0077 216.476 101.721 207.507C105.434 198.538 108.281 189.164 110.183 179.646C112.103 170.037 113.076 160.195 113.076 150.393V111.781H115.171V150.393C115.171 160.333 114.184 170.313 112.238 180.056C110.309 189.708 107.422 199.214 103.657 208.309C99.8911 217.404 95.2144 226.168 89.7563 234.357C84.2468 242.624 77.891 250.379 70.8653 257.408L-23.007 351.325Z" fill="url(#paint38_radial_2209_18)"/>
</g>
<mask id="mask7_2209_18" style="mask-type:luminance" maskUnits="userSpaceOnUse" x="0" y="0" width="419" height="262">
<path d="M419 0H0V262H419V0Z" fill="white"/>
</mask>
<g mask="url(#mask7_2209_18)">
<path d="M124.67 240.78H122.575V303.31H124.67V240.78Z" fill="url(#paint39_radial_2209_18)"/>
<path d="M129.432 240.78H127.337V303.31H129.432V240.78Z" fill="url(#paint40_radial_2209_18)"/>
<path d="M134.193 240.78H132.098V303.31H134.193V240.78Z" fill="url(#paint41_radial_2209_18)"/>
<path d="M138.954 240.78H136.859V303.31H138.954V240.78Z" fill="url(#paint42_radial_2209_18)"/>
<path d="M143.716 240.78H141.621V303.31H143.716V240.78Z" fill="url(#paint43_radial_2209_18)"/>
<path d="M148.477 240.78H146.382V303.31H148.477V240.78Z" fill="url(#paint44_radial_2209_18)"/>
<path d="M153.239 240.78H151.144V303.31H153.239V240.78Z" fill="url(#paint45_radial_2209_18)"/>
<path d="M158 240.78H155.905V303.31H158V240.78Z" fill="url(#paint46_radial_2209_18)"/>
<path d="M162.761 240.78H160.666V303.31H162.761V240.78Z" fill="url(#paint47_radial_2209_18)"/>
<path d="M167.523 240.78H165.428V303.31H167.523V240.78Z" fill="url(#paint48_radial_2209_18)"/>
<path d="M172.284 240.78H170.189V303.31H172.284V240.78Z" fill="url(#paint49_radial_2209_18)"/>
<path d="M177.045 240.78H174.95V303.31H177.045V240.78Z" fill="url(#paint50_radial_2209_18)"/>
</g>
</g>
<defs>
<radialGradient id="paint0_radial_2209_18" cx="0" cy="0" r="1" gradientUnits="userSpaceOnUse" gradientTransform="translate(216.029 436.487) scale(264.483 264.609)">
<stop stop-color="#94EC91"/>
<stop offset="1" stop-color="#1380AD"/>
</radialGradient>
<radialGradient id="paint1_radial_2209_18" cx="0" cy="0" r="1" gradientUnits="userSpaceOnUse" gradientTransform="translate(283.662 12.0459) scale(235.271 235.383)">
<stop stop-color="#94EC91"/>
<stop offset="1" stop-color="#1380AD"/>
</radialGradient>
<radialGradient id="paint2_radial_2209_18" cx="0" cy="0" r="1" gradientUnits="userSpaceOnUse" gradientTransform="translate(283.663 12.0458) scale(235.27 235.382)">
<stop stop-color="#94EC91"/>
<stop offset="1" stop-color="#1380AD"/>
</radialGradient>
<radialGradient id="paint3_radial_2209_18" cx="0" cy="0" r="1" gradientUnits="userSpaceOnUse" gradientTransform="translate(283.662 12.0461) scale(235.27 235.382)">
<stop stop-color="#94EC91"/>
<stop offset="1" stop-color="#1380AD"/>
</radialGradient>
<radialGradient id="paint4_radial_2209_18" cx="0" cy="0" r="1" gradientUnits="userSpaceOnUse" gradientTransform="translate(283.662 12.0461) scale(235.27 235.382)">
<stop stop-color="#94EC91"/>
<stop offset="1" stop-color="#1380AD"/>
</radialGradient>
<radialGradient id="paint5_radial_2209_18" cx="0" cy="0" r="1" gradientUnits="userSpaceOnUse" gradientTransform="translate(283.663 12.046) scale(235.271 235.383)">
<stop stop-color="#94EC91"/>
<stop offset="1" stop-color="#1380AD"/>
</radialGradient>
<radialGradient id="paint6_radial_2209_18" cx="0" cy="0" r="1" gradientUnits="userSpaceOnUse" gradientTransform="translate(283.662 12.0461) scale(235.27 235.383)">
<stop stop-color="#94EC91"/>
<stop offset="1" stop-color="#1380AD"/>
</radialGradient>
<radialGradient id="paint7_radial_2209_18" cx="0" cy="0" r="1" gradientUnits="userSpaceOnUse" gradientTransform="translate(283.663 12.0461) scale(235.271 235.384)">
<stop stop-color="#94EC91"/>
<stop offset="1" stop-color="#1380AD"/>
</radialGradient>
<radialGradient id="paint8_radial_2209_18" cx="0" cy="0" r="1" gradientUnits="userSpaceOnUse" gradientTransform="translate(283.662 12.0461) scale(235.27 235.382)">
<stop stop-color="#94EC91"/>
<stop offset="1" stop-color="#1380AD"/>
</radialGradient>
<radialGradient id="paint9_radial_2209_18" cx="0" cy="0" r="1" gradientUnits="userSpaceOnUse" gradientTransform="translate(283.662 12.0463) scale(235.271 235.383)">
<stop stop-color="#94EC91"/>
<stop offset="1" stop-color="#1380AD"/>
</radialGradient>
<radialGradient id="paint10_radial_2209_18" cx="0" cy="0" r="1" gradientUnits="userSpaceOnUse" gradientTransform="translate(283.663 12.0462) scale(235.27 235.383)">
<stop stop-color="#94EC91"/>
<stop offset="1" stop-color="#1380AD"/>
</radialGradient>
<radialGradient id="paint11_radial_2209_18" cx="0" cy="0" r="1" gradientUnits="userSpaceOnUse" gradientTransform="translate(283.662 12.0462) scale(235.271 235.383)">
<stop stop-color="#94EC91"/>
<stop offset="1" stop-color="#1380AD"/>
</radialGradient>
<radialGradient id="paint12_radial_2209_18" cx="0" cy="0" r="1" gradientUnits="userSpaceOnUse" gradientTransform="translate(283.662 12.0463) scale(235.271 235.383)">
<stop stop-color="#94EC91"/>
<stop offset="1" stop-color="#1380AD"/>
</radialGradient>
<radialGradient id="paint13_radial_2209_18" cx="0" cy="0" r="1" gradientUnits="userSpaceOnUse" gradientTransform="translate(-19.4523 -86.9901) scale(247.787 247.905)">
<stop stop-color="#94EC91"/>
<stop offset="1" stop-color="#1380AD"/>
</radialGradient>
<radialGradient id="paint14_radial_2209_18" cx="0" cy="0" r="1" gradientUnits="userSpaceOnUse" gradientTransform="translate(378.961 -102.983) scale(181.849 181.936)">
<stop stop-color="#94EC91"/>
<stop offset="1" stop-color="#1380AD"/>
</radialGradient>
<radialGradient id="paint15_radial_2209_18" cx="0" cy="0" r="1" gradientUnits="userSpaceOnUse" gradientTransform="translate(378.961 -102.983) scale(181.849 181.936)">
<stop stop-color="#94EC91"/>
<stop offset="1" stop-color="#1380AD"/>
</radialGradient>
<radialGradient id="paint16_radial_2209_18" cx="0" cy="0" r="1" gradientUnits="userSpaceOnUse" gradientTransform="translate(378.961 -102.983) scale(181.85 181.937)">
<stop stop-color="#94EC91"/>
<stop offset="1" stop-color="#1380AD"/>
</radialGradient>
<radialGradient id="paint17_radial_2209_18" cx="0" cy="0" r="1" gradientUnits="userSpaceOnUse" gradientTransform="translate(378.961 -102.983) scale(181.85 181.937)">
<stop stop-color="#94EC91"/>
<stop offset="1" stop-color="#1380AD"/>
</radialGradient>
<radialGradient id="paint18_radial_2209_18" cx="0" cy="0" r="1" gradientUnits="userSpaceOnUse" gradientTransform="translate(378.961 -102.983) scale(181.85 181.937)">
<stop stop-color="#94EC91"/>
<stop offset="1" stop-color="#1380AD"/>
</radialGradient>
<radialGradient id="paint19_radial_2209_18" cx="0" cy="0" r="1" gradientUnits="userSpaceOnUse" gradientTransform="translate(378.961 -102.983) scale(181.849 181.936)">
<stop stop-color="#94EC91"/>
<stop offset="1" stop-color="#1380AD"/>
</radialGradient>
<radialGradient id="paint20_radial_2209_18" cx="0" cy="0" r="1" gradientUnits="userSpaceOnUse" gradientTransform="translate(378.962 -102.983) scale(181.85 181.937)">
<stop stop-color="#94EC91"/>
<stop offset="1" stop-color="#1380AD"/>
</radialGradient>
<radialGradient id="paint21_radial_2209_18" cx="0" cy="0" r="1" gradientUnits="userSpaceOnUse" gradientTransform="translate(378.962 -102.983) scale(181.849 181.936)">
<stop stop-color="#94EC91"/>
<stop offset="1" stop-color="#1380AD"/>
</radialGradient>
<radialGradient id="paint22_radial_2209_18" cx="0" cy="0" r="1" gradientUnits="userSpaceOnUse" gradientTransform="translate(378.962 -102.983) scale(181.85 181.937)">
<stop stop-color="#94EC91"/>
<stop offset="1" stop-color="#1380AD"/>
</radialGradient>
<radialGradient id="paint23_radial_2209_18" cx="0" cy="0" r="1" gradientUnits="userSpaceOnUse" gradientTransform="translate(378.962 -102.983) scale(181.85 181.937)">
<stop stop-color="#94EC91"/>
<stop offset="1" stop-color="#1380AD"/>
</radialGradient>
<radialGradient id="paint24_radial_2209_18" cx="0" cy="0" r="1" gradientUnits="userSpaceOnUse" gradientTransform="translate(378.961 -102.983) scale(181.849 181.936)">
<stop stop-color="#94EC91"/>
<stop offset="1" stop-color="#1380AD"/>
</radialGradient>
<radialGradient id="paint25_radial_2209_18" cx="0" cy="0" r="1" gradientUnits="userSpaceOnUse" gradientTransform="translate(378.961 -102.982) scale(181.849 181.936)">
<stop stop-color="#94EC91"/>
<stop offset="1" stop-color="#1380AD"/>
</radialGradient>
<radialGradient id="paint26_radial_2209_18" cx="0" cy="0" r="1" gradientUnits="userSpaceOnUse" gradientTransform="translate(289.196 295.006) scale(410.965 411.162)">
<stop stop-color="#94EC91"/>
<stop offset="1" stop-color="#1380AD"/>
</radialGradient>
<radialGradient id="paint27_radial_2209_18" cx="0" cy="0" r="1" gradientUnits="userSpaceOnUse" gradientTransform="translate(28.0948 51.6193) scale(226.52 226.628)">
<stop stop-color="#94EC91"/>
<stop offset="1" stop-color="#1380AD"/>
</radialGradient>
<radialGradient id="paint28_radial_2209_18" cx="0" cy="0" r="1" gradientUnits="userSpaceOnUse" gradientTransform="translate(28.0952 51.6194) scale(226.52 226.629)">
<stop stop-color="#94EC91"/>
<stop offset="1" stop-color="#1380AD"/>
</radialGradient>
<radialGradient id="paint29_radial_2209_18" cx="0" cy="0" r="1" gradientUnits="userSpaceOnUse" gradientTransform="translate(28.0946 51.6192) scale(226.521 226.629)">
<stop stop-color="#94EC91"/>
<stop offset="1" stop-color="#1380AD"/>
</radialGradient>
<radialGradient id="paint30_radial_2209_18" cx="0" cy="0" r="1" gradientUnits="userSpaceOnUse" gradientTransform="translate(28.095 51.6192) scale(226.519 226.628)">
<stop stop-color="#94EC91"/>
<stop offset="1" stop-color="#1380AD"/>
</radialGradient>
<radialGradient id="paint31_radial_2209_18" cx="0" cy="0" r="1" gradientUnits="userSpaceOnUse" gradientTransform="translate(28.0945 51.6193) scale(226.52 226.629)">
<stop stop-color="#94EC91"/>
<stop offset="1" stop-color="#1380AD"/>
</radialGradient>
<radialGradient id="paint32_radial_2209_18" cx="0" cy="0" r="1" gradientUnits="userSpaceOnUse" gradientTransform="translate(28.0949 51.6192) scale(226.52 226.628)">
<stop stop-color="#94EC91"/>
<stop offset="1" stop-color="#1380AD"/>
</radialGradient>
<radialGradient id="paint33_radial_2209_18" cx="0" cy="0" r="1" gradientUnits="userSpaceOnUse" gradientTransform="translate(28.0952 51.6193) scale(226.52 226.629)">
<stop stop-color="#94EC91"/>
<stop offset="1" stop-color="#1380AD"/>
</radialGradient>
<radialGradient id="paint34_radial_2209_18" cx="0" cy="0" r="1" gradientUnits="userSpaceOnUse" gradientTransform="translate(28.0948 51.6193) scale(226.521 226.629)">
<stop stop-color="#94EC91"/>
<stop offset="1" stop-color="#1380AD"/>
</radialGradient>
<radialGradient id="paint35_radial_2209_18" cx="0" cy="0" r="1" gradientUnits="userSpaceOnUse" gradientTransform="translate(28.0951 51.6193) scale(226.52 226.628)">
<stop stop-color="#94EC91"/>
<stop offset="1" stop-color="#1380AD"/>
</radialGradient>
<radialGradient id="paint36_radial_2209_18" cx="0" cy="0" r="1" gradientUnits="userSpaceOnUse" gradientTransform="translate(28.0944 51.6193) scale(226.521 226.629)">
<stop stop-color="#94EC91"/>
<stop offset="1" stop-color="#1380AD"/>
</radialGradient>
<radialGradient id="paint37_radial_2209_18" cx="0" cy="0" r="1" gradientUnits="userSpaceOnUse" gradientTransform="translate(28.0949 51.6194) scale(226.521 226.629)">
<stop stop-color="#94EC91"/>
<stop offset="1" stop-color="#1380AD"/>
</radialGradient>
<radialGradient id="paint38_radial_2209_18" cx="0" cy="0" r="1" gradientUnits="userSpaceOnUse" gradientTransform="translate(28.0952 51.6194) scale(226.52 226.628)">
<stop stop-color="#94EC91"/>
<stop offset="1" stop-color="#1380AD"/>
</radialGradient>
<radialGradient id="paint39_radial_2209_18" cx="0" cy="0" r="1" gradientUnits="userSpaceOnUse" gradientTransform="translate(150.497 224.266) scale(69.213 69.2461)">
<stop stop-color="#94EC91"/>
<stop offset="1" stop-color="#1380AD"/>
</radialGradient>
<radialGradient id="paint40_radial_2209_18" cx="0" cy="0" r="1" gradientUnits="userSpaceOnUse" gradientTransform="translate(150.497 224.266) scale(69.213 69.246)">
<stop stop-color="#94EC91"/>
<stop offset="1" stop-color="#1380AD"/>
</radialGradient>
<radialGradient id="paint41_radial_2209_18" cx="0" cy="0" r="1" gradientUnits="userSpaceOnUse" gradientTransform="translate(150.497 224.266) scale(69.2128 69.2458)">
<stop stop-color="#94EC91"/>
<stop offset="1" stop-color="#1380AD"/>
</radialGradient>
<radialGradient id="paint42_radial_2209_18" cx="0" cy="0" r="1" gradientUnits="userSpaceOnUse" gradientTransform="translate(150.497 224.266) scale(69.2132 69.2462)">
<stop stop-color="#94EC91"/>
<stop offset="1" stop-color="#1380AD"/>
</radialGradient>
<radialGradient id="paint43_radial_2209_18" cx="0" cy="0" r="1" gradientUnits="userSpaceOnUse" gradientTransform="translate(150.497 224.266) scale(69.2129 69.2459)">
<stop stop-color="#94EC91"/>
<stop offset="1" stop-color="#1380AD"/>
</radialGradient>
<radialGradient id="paint44_radial_2209_18" cx="0" cy="0" r="1" gradientUnits="userSpaceOnUse" gradientTransform="translate(150.496 224.266) scale(69.2133 69.2463)">
<stop stop-color="#94EC91"/>
<stop offset="1" stop-color="#1380AD"/>
</radialGradient>
<radialGradient id="paint45_radial_2209_18" cx="0" cy="0" r="1" gradientUnits="userSpaceOnUse" gradientTransform="translate(150.497 224.266) scale(69.2127 69.2458)">
<stop stop-color="#94EC91"/>
<stop offset="1" stop-color="#1380AD"/>
</radialGradient>
<radialGradient id="paint46_radial_2209_18" cx="0" cy="0" r="1" gradientUnits="userSpaceOnUse" gradientTransform="translate(150.497 224.266) scale(69.213 69.246)">
<stop stop-color="#94EC91"/>
<stop offset="1" stop-color="#1380AD"/>
</radialGradient>
<radialGradient id="paint47_radial_2209_18" cx="0" cy="0" r="1" gradientUnits="userSpaceOnUse" gradientTransform="translate(150.497 224.266) scale(69.2132 69.2462)">
<stop stop-color="#94EC91"/>
<stop offset="1" stop-color="#1380AD"/>
</radialGradient>
<radialGradient id="paint48_radial_2209_18" cx="0" cy="0" r="1" gradientUnits="userSpaceOnUse" gradientTransform="translate(150.497 224.266) scale(69.2132 69.2462)">
<stop stop-color="#94EC91"/>
<stop offset="1" stop-color="#1380AD"/>
</radialGradient>
<radialGradient id="paint49_radial_2209_18" cx="0" cy="0" r="1" gradientUnits="userSpaceOnUse" gradientTransform="translate(150.497 224.266) scale(69.213 69.246)">
<stop stop-color="#94EC91"/>
<stop offset="1" stop-color="#1380AD"/>
</radialGradient>
<radialGradient id="paint50_radial_2209_18" cx="0" cy="0" r="1" gradientUnits="userSpaceOnUse" gradientTransform="translate(150.497 224.266) scale(69.2131 69.2461)">
<stop stop-color="#94EC91"/>
<stop offset="1" stop-color="#1380AD"/>
</radialGradient>
<clipPath id="clip0_2209_18">
<rect width="419" height="262" fill="white"/>
</clipPath>
</defs>
</svg>
