<svg xmlns="http://www.w3.org/2000/svg" width="151" height="113" viewBox="0 0 151 113" fill="none"><path d="M5.25529 104.532L8.25529 112.532C22.7567 108.032 36.7539 99.0322 41.7539 94.5322C46.7539 90.0322 60.7553 77.5322 66.2553 61.0322C71.7553 44.5322 74.2553 19.0322 53.2553 5.53223C32.2553 -7.96777 2.75529 4.53223 0.255287 29.0322C-2.24471 53.5322 13.7553 73.0322 40.7553 71.0322C36.7553 86.2322 15.422 99.6989 5.25529 104.532Z" fill="url(#paint0_linear_1655_352)"></path><path d="M85.3608 104.532L88.3608 112.532C102.862 108.032 116.859 99.0322 121.859 94.5322C126.859 90.0322 140.861 77.5322 146.361 61.0322C151.861 44.5322 154.361 19.0322 133.361 5.53223C112.361 -7.96777 82.8608 4.53223 80.3608 29.0322C77.8608 53.5322 93.8608 73.0322 120.861 71.0322C116.861 86.2322 95.5274 99.6989 85.3608 104.532Z" fill="url(#paint1_linear_1655_352)"></path><defs><linearGradient id="paint0_linear_1655_352" x1="35.0525" y1="5.34058e-05" x2="35.0525" y2="112.532" gradientUnits="userSpaceOnUse"><stop stop-color="#68843F"></stop><stop offset="1" stop-color="white"></stop></linearGradient><linearGradient id="paint1_linear_1655_352" x1="115.158" y1="5.34058e-05" x2="115.158" y2="112.532" gradientUnits="userSpaceOnUse"><stop stop-color="#68843F"></stop><stop offset="1" stop-color="white"></stop></linearGradient></defs></svg>