<svg xmlns="http://www.w3.org/2000/svg" width="151" height="113" viewBox="0 0 151 113" fill="none"><path d="M64.8502 8L61.8502 0C47.3488 4.5 33.3516 13.5 28.3516 18C23.3516 22.5 9.35018 35 3.85018 51.5C-1.64982 68 -4.14982 93.5 16.8502 107C37.8502 120.5 67.3502 108 69.8502 83.5C72.3502 59 56.3502 39.5 29.3502 41.5C33.3502 26.3 54.6835 12.8333 64.8502 8Z" fill="url(#paint0_linear_1655_351)"></path><path d="M144.85 8L141.85 0C127.349 4.5 113.352 13.5 108.352 18C103.352 22.5 89.3502 35 83.8502 51.5C78.3502 68 75.8502 93.5 96.8502 107C117.85 120.5 147.35 108 149.85 83.5C152.35 59 136.35 39.5 109.35 41.5C113.35 26.3 134.684 12.8333 144.85 8Z" fill="url(#paint1_linear_1655_351)"></path><defs><linearGradient id="paint0_linear_1655_351" x1="35.053" y1="112.532" x2="35.053" y2="0" gradientUnits="userSpaceOnUse"><stop stop-color="#68843F"></stop><stop offset="1" stop-color="white"></stop></linearGradient><linearGradient id="paint1_linear_1655_351" x1="115.053" y1="112.532" x2="115.053" y2="0" gradientUnits="userSpaceOnUse"><stop stop-color="#68843F"></stop><stop offset="1" stop-color="white"></stop></linearGradient></defs></svg>